<svg width="48" height="48" viewBox="0 0 48 48" fill="none" xmlns="http://www.w3.org/2000/svg">
<g clip-path="url(#clip0_6_192)">
<path d="M18.227 5.32614C16.0432 5.32613 13.8807 5.69789 11.8632 6.42022C9.84558 7.14254 8.01236 8.20128 6.46817 9.53597C4.92398 10.8707 3.69907 12.4552 2.86337 14.199C2.02767 15.9429 1.59755 17.812 1.59756 19.6995C1.59738 21.8472 2.15403 23.9676 3.22661 25.9049C4.29919 27.8422 5.86043 29.5471 7.79556 30.8944L6.99479 34.4274C6.79029 35.1701 7.62998 35.7594 8.25895 35.3146L11.7674 32.9433C13.8118 33.6885 16.0082 34.0726 18.227 34.0729C22.6372 34.0727 26.8667 32.5583 29.9851 29.8627C33.1035 27.1672 34.8554 23.5114 34.8553 19.6995C34.8554 15.8876 33.1035 12.2318 29.9851 9.5363C26.8667 6.84079 22.6372 5.32636 18.227 5.32614Z" fill="url(#paint0_linear_6_192)"/>
<path d="M18.227 5.32614C16.0432 5.32613 13.8807 5.69789 11.8632 6.42022C9.84558 7.14254 8.01236 8.20128 6.46817 9.53597C4.92398 10.8707 3.69907 12.4552 2.86337 14.199C2.02767 15.9429 1.59755 17.812 1.59756 19.6995C1.59738 21.8472 2.15403 23.9676 3.22661 25.9049C4.29919 27.8422 5.86043 29.5471 7.79556 30.8944L6.99479 34.4274C6.79029 35.1701 7.62998 35.7594 8.25895 35.3146L11.7674 32.9433C13.8118 33.6885 16.0082 34.0726 18.227 34.0729C22.6372 34.0727 26.8667 32.5583 29.9851 29.8627C33.1035 27.1672 34.8554 23.5114 34.8553 19.6995C34.8554 15.8876 33.1035 12.2318 29.9851 9.5363C26.8667 6.84079 22.6372 5.32636 18.227 5.32614Z" fill="url(#paint1_radial_6_192)"/>
<path d="M18.227 5.32614C16.0432 5.32613 13.8807 5.69789 11.8632 6.42022C9.84558 7.14254 8.01236 8.20128 6.46817 9.53597C4.92398 10.8707 3.69907 12.4552 2.86337 14.199C2.02767 15.9429 1.59755 17.812 1.59756 19.6995C1.59738 21.8472 2.15403 23.9676 3.22661 25.9049C4.29919 27.8422 5.86043 29.5471 7.79556 30.8944L6.99479 34.4274C6.79029 35.1701 7.62998 35.7594 8.25895 35.3146L11.7674 32.9433C13.8118 33.6885 16.0082 34.0726 18.227 34.0729C22.6372 34.0727 26.8667 32.5583 29.9851 29.8627C33.1035 27.1672 34.8554 23.5114 34.8553 19.6995C34.8554 15.8876 33.1035 12.2318 29.9851 9.5363C26.8667 6.84079 22.6372 5.32636 18.227 5.32614Z" fill="url(#paint2_radial_6_192)"/>
<path d="M33.683 18.1151C30.0991 18.1374 26.6707 19.4097 24.1455 21.6545C21.6203 23.8993 20.2032 26.9344 20.2033 30.0979C20.2032 33.2758 21.6334 36.3236 24.1791 38.5708C26.7249 40.818 30.1777 42.0805 33.778 42.0807C35.5039 42.0805 37.2139 41.7899 38.8165 41.2244L41.837 43.2647C42.466 43.7095 43.3057 43.1202 43.1012 42.3775L42.4125 39.3431C43.9576 38.2191 45.2018 36.8073 46.0561 35.2089C46.9104 33.6105 47.3536 31.8652 47.3538 30.0979C47.3538 28.5242 47.0027 26.966 46.3204 25.5122C45.6382 24.0583 44.6382 22.7373 43.3776 21.6246C42.1169 20.5119 40.6203 19.6293 38.9732 19.0271C37.3262 18.4249 35.5608 18.115 33.778 18.1151C33.7463 18.115 33.7147 18.115 33.683 18.1151Z" fill="url(#paint3_radial_6_192)"/>
<path d="M33.6832 18.1152C30.0994 18.1375 26.6709 19.4098 24.1457 21.6546C21.6205 23.8994 20.2034 26.9345 20.2035 30.0979C20.2036 31.9243 20.6767 33.7264 21.5865 35.3667C22.4964 37.007 23.8191 38.442 25.4534 39.562C23.9603 38.4371 22.7614 37.0398 21.9393 35.4664C21.1172 33.8929 20.6914 32.1809 20.6914 30.4482C20.6913 27.2847 22.1084 24.2496 24.6336 22.0048C27.1589 19.76 30.5873 18.4877 34.1711 18.4654C34.2028 18.4653 34.2345 18.4653 34.2662 18.4654C37.2795 18.4654 40.2071 19.3504 42.5878 20.9809C40.1309 19.1312 37.0075 18.1151 33.7783 18.1152C33.7466 18.1151 33.7149 18.1151 33.6832 18.1152Z" fill="white" fill-opacity="0.237218"/>
<path d="M14.2209 17.8431C15.2859 17.8431 16.1492 16.9798 16.1492 15.9148C16.1492 14.8499 15.2859 13.9866 14.2209 13.9866C13.156 13.9866 12.2927 14.8499 12.2927 15.9148C12.2927 16.9798 13.156 17.8431 14.2209 17.8431Z" fill="#2B4B2A" fill-opacity="0.625803"/>
<path d="M24.9275 17.8431C25.9924 17.8431 26.8557 16.9798 26.8557 15.9148C26.8557 14.8499 25.9924 13.9866 24.9275 13.9866C23.8625 13.9866 22.9992 14.8499 22.9992 15.9148C22.9992 16.9798 23.8625 17.8431 24.9275 17.8431Z" fill="#2B4B2A" fill-opacity="0.625803"/>
<path d="M29.7593 29.4063C30.7067 29.4063 31.4746 28.6383 31.4746 27.691C31.4746 26.7436 30.7067 25.9757 29.7593 25.9757C28.812 25.9757 28.044 26.7436 28.044 27.691C28.044 28.6383 28.812 29.4063 29.7593 29.4063Z" fill="#6A8B82"/>
<path d="M38.8047 29.4063C39.752 29.4063 40.52 28.6383 40.52 27.691C40.52 26.7436 39.752 25.9757 38.8047 25.9757C37.8574 25.9757 37.0894 26.7436 37.0894 27.691C37.0894 28.6383 37.8574 29.4063 38.8047 29.4063Z" fill="#70857F"/>
</g>
<defs>
<linearGradient id="paint0_linear_6_192" x1="1.59757" y1="20.3973" x2="34.8554" y2="20.3973" gradientUnits="userSpaceOnUse">
<stop stop-color="#84D74B"/>
<stop offset="1" stop-color="#43891A"/>
</linearGradient>
<radialGradient id="paint1_radial_6_192" cx="0" cy="0" r="1" gradientUnits="userSpaceOnUse" gradientTransform="translate(19.917 6.32278) scale(16.6289 15.0711)">
<stop stop-color="#8BE542"/>
<stop offset="1" stop-color="#8BE542" stop-opacity="0"/>
</radialGradient>
<radialGradient id="paint2_radial_6_192" cx="0" cy="0" r="1" gradientUnits="userSpaceOnUse" gradientTransform="translate(30.6182 28.509) rotate(42.5701) scale(16.0151 19.4843)">
<stop stop-color="#3E9815"/>
<stop offset="0.495744" stop-color="#3E9815" stop-opacity="0.909804"/>
<stop offset="0.73043" stop-color="#3E9815" stop-opacity="0"/>
<stop offset="1" stop-color="#3E9815" stop-opacity="0"/>
</radialGradient>
<radialGradient id="paint3_radial_6_192" cx="0" cy="0" r="1" gradientUnits="userSpaceOnUse" gradientTransform="translate(26.7267 24.8176) rotate(-36.081) scale(14.3623 9.77013)">
<stop stop-color="#8DCD6F"/>
<stop offset="0.45882" stop-color="#9ED87E"/>
<stop offset="1" stop-color="#CBE0DC"/>
</radialGradient>
<clipPath id="clip0_6_192">
<rect width="48" height="48" fill="white"/>
</clipPath>
</defs>
</svg>
