<svg width="48" height="48" viewBox="0 0 48 48" fill="none" xmlns="http://www.w3.org/2000/svg">
<g clip-path="url(#clip0_6_117)">
<path d="M24.6948 2.07231L6.80823 6.86499C2.53679 8.00952 0.00192156 12.4 1.14645 16.6715L5.67815 33.584C6.82268 37.8555 11.2132 40.3903 15.4846 39.2458L33.3712 34.4531C37.6426 33.3086 40.1775 28.9181 39.033 24.6466L34.5013 7.73409C33.3567 3.46264 28.9662 0.927781 24.6948 2.07231Z" fill="url(#paint0_linear_6_117)"/>
<path d="M38.6997 9.54169H17.4064C12.9843 9.54169 9.39941 13.1265 9.39941 17.5487V38.0982C9.39941 42.5203 12.9843 46.1052 17.4064 46.1052H38.6997C43.1218 46.1052 46.7067 42.5203 46.7067 38.0982V17.5487C46.7067 13.1265 43.1218 9.54169 38.6997 9.54169Z" fill="url(#paint1_linear_6_117)"/>
<path d="M38.6997 9.54169H17.4064C12.9843 9.54169 9.39941 13.1265 9.39941 17.5487V38.0982C9.39941 42.5203 12.9843 46.1052 17.4064 46.1052H38.6997C43.1218 46.1052 46.7067 42.5203 46.7067 38.0982V17.5487C46.7067 13.1265 43.1218 9.54169 38.6997 9.54169Z" fill="url(#paint2_linear_6_117)"/>
<path d="M38.6997 9.54169H17.4064C12.9843 9.54169 9.39941 13.1265 9.39941 17.5487V38.0982C9.39941 42.5203 12.9843 46.1052 17.4064 46.1052H38.6997C43.1218 46.1052 46.7067 42.5203 46.7067 38.0982V17.5487C46.7067 13.1265 43.1218 9.54169 38.6997 9.54169Z" fill="url(#paint3_linear_6_117)"/>
<path d="M38.6997 9.54169H17.4064C12.9843 9.54169 9.39941 13.1265 9.39941 17.5487V38.0982C9.39941 42.5203 12.9843 46.1052 17.4064 46.1052H38.6997C43.1218 46.1052 46.7067 42.5203 46.7067 38.0982V17.5487C46.7067 13.1265 43.1218 9.54169 38.6997 9.54169Z" fill="url(#paint4_radial_6_117)"/>
<path d="M17.4065 9.54205C12.9707 9.54205 9.3996 13.1131 9.3996 17.549V38.0979C9.3996 42.5337 12.9707 46.1048 17.4065 46.1048H38.6994C43.1353 46.1048 46.7064 42.5337 46.7064 38.0979V17.549C46.7064 13.1131 43.1353 9.54205 38.6994 9.54205H17.4065ZM17.8698 9.97687H38.2362C42.6721 9.97687 46.2431 13.548 46.2432 17.9838V37.6631C46.2432 42.0989 42.6721 45.67 38.2362 45.67H17.8698C13.4339 45.67 9.86282 42.0989 9.86282 37.6631V17.9838C9.86282 13.548 13.4339 9.97687 17.8698 9.97687Z" fill="#EBDEE7" fill-opacity="0.120017"/>
<path opacity="0.439478" d="M20.7098 23.8314C23.0504 23.8314 24.9478 21.934 24.9478 19.5935C24.9478 17.2529 23.0504 15.3555 20.7098 15.3555C18.3693 15.3555 16.4719 17.2529 16.4719 19.5935C16.4719 21.934 18.3693 23.8314 20.7098 23.8314Z" fill="url(#paint5_radial_6_117)"/>
<path d="M20.49 22.8565C22.5429 22.8565 24.2072 21.1922 24.2072 19.1393C24.2072 17.0863 22.5429 15.422 20.49 15.422C18.437 15.422 16.7727 17.0863 16.7727 19.1393C16.7727 21.1922 18.437 22.8565 20.49 22.8565Z" fill="url(#paint6_linear_6_117)"/>
<path d="M34.0573 26.6535C33.2233 26.6535 32.39 26.9736 31.751 27.6127L23.8539 34.8328C23.4641 35.2226 22.6984 35.3169 22.4025 35.0391L20.8107 33.545C20.3152 33.08 19.6678 32.848 19.0212 32.8479C18.3745 32.8479 17.7282 33.08 17.2327 33.545L14.0284 36.5526C13.7598 36.8047 13.5692 37.0996 13.4483 37.4124C13.3564 37.5438 13.3019 37.7035 13.3019 37.8767V38.0264C13.292 38.1403 13.2946 38.2543 13.3019 38.3684V38.7344V39.4051V40.1775C13.3019 41.3386 14.2363 42.273 15.3973 42.273H26.4545C26.6652 42.273 26.8639 42.233 27.0554 42.1757C27.2804 42.2332 27.5124 42.273 27.7557 42.273H40.8373C42.3982 42.273 43.6538 41.0162 43.6538 39.4554V36.6291C43.6828 36.3668 43.6778 36.1031 43.6429 35.8414C43.5874 35.0973 43.2422 34.4422 42.723 33.9721C42.7208 33.9699 42.7191 33.9671 42.7165 33.9645L36.3647 27.6127C35.7256 26.9736 34.8912 26.6535 34.0573 26.6535Z" fill="url(#paint7_linear_6_117)"/>
<path d="M34.0573 26.6535C33.2233 26.6535 32.39 26.9736 31.751 27.6127L23.8539 34.8328C23.4641 35.2226 22.6984 35.3169 22.4025 35.0391L20.8107 33.545C20.3152 33.08 19.6678 32.848 19.0212 32.8479C18.3745 32.8479 17.7282 33.08 17.2327 33.545L14.0284 36.5526C13.7598 36.8047 13.5692 37.0996 13.4483 37.4124C13.3564 37.5438 13.3019 37.7035 13.3019 37.8767V38.0264C13.292 38.1403 13.2946 38.2543 13.3019 38.3684V38.7344V39.4051V40.1775C13.3019 41.3386 14.2363 42.273 15.3973 42.273H26.4545C26.6652 42.273 26.8639 42.233 27.0554 42.1757C27.2804 42.2332 27.5124 42.273 27.7557 42.273H40.8373C42.3982 42.273 43.6538 41.0162 43.6538 39.4554V36.6291C43.6828 36.3668 43.6778 36.1031 43.6429 35.8414C43.5874 35.0973 43.2422 34.4422 42.723 33.9721C42.7208 33.9699 42.7191 33.9671 42.7165 33.9645L36.3647 27.6127C35.7256 26.9736 34.8912 26.6535 34.0573 26.6535Z" fill="url(#paint8_linear_6_117)"/>
</g>
<defs>
<linearGradient id="paint0_linear_6_117" x1="16.9264" y1="32.0242" x2="11.0932" y2="10.2543" gradientUnits="userSpaceOnUse">
<stop stop-color="#792AA2"/>
<stop offset="1" stop-color="#F7786B"/>
</linearGradient>
<linearGradient id="paint1_linear_6_117" x1="16.1849" y1="15.1996" x2="40.2861" y2="39.3007" gradientUnits="userSpaceOnUse">
<stop stop-color="#D888A9"/>
<stop offset="0.378705" stop-color="#C2709C"/>
<stop offset="0.468367" stop-color="#C16F9C"/>
<stop offset="0.536801" stop-color="#C3729C"/>
<stop offset="1" stop-color="#FBB9A0"/>
</linearGradient>
<linearGradient id="paint2_linear_6_117" x1="43.4875" y1="11.8504" x2="24.8895" y2="30.4484" gradientUnits="userSpaceOnUse">
<stop stop-color="#EBCFE2"/>
<stop offset="0.569532" stop-color="#EBCFE2" stop-opacity="0.0941176"/>
<stop offset="0.65518" stop-color="#EBCFE2" stop-opacity="0.0470588"/>
<stop offset="0.726482" stop-color="#EBCFE2" stop-opacity="0.01"/>
<stop offset="0.858952" stop-color="#EBCFE2" stop-opacity="0"/>
<stop offset="1" stop-color="#EBCFE2" stop-opacity="0"/>
</linearGradient>
<linearGradient id="paint3_linear_6_117" x1="27.6789" y1="47.7903" x2="27.6789" y2="32.8917" gradientUnits="userSpaceOnUse">
<stop stop-color="#FAB7A1"/>
<stop offset="0.725901" stop-color="#FAB7A1" stop-opacity="0.164706"/>
<stop offset="0.787158" stop-color="#FAB7A1" stop-opacity="0.121569"/>
<stop offset="0.845627" stop-color="#FAB7A1" stop-opacity="0.0862745"/>
<stop offset="0.917122" stop-color="#FAB7A1" stop-opacity="0.0588235"/>
<stop offset="1" stop-color="#FAB7A1" stop-opacity="0"/>
</linearGradient>
<radialGradient id="paint4_radial_6_117" cx="0" cy="0" r="1" gradientUnits="userSpaceOnUse" gradientTransform="translate(43.9823 11.6463) scale(18.6536 18.2817)">
<stop stop-color="#EBCFE2"/>
<stop offset="0.569532" stop-color="#EBCFE2" stop-opacity="0.0941176"/>
<stop offset="0.65518" stop-color="#EBCFE2" stop-opacity="0.0470588"/>
<stop offset="0.726482" stop-color="#EBCFE2" stop-opacity="0.01"/>
<stop offset="0.858952" stop-color="#EBCFE2" stop-opacity="0"/>
<stop offset="1" stop-color="#EBCFE2" stop-opacity="0"/>
</radialGradient>
<radialGradient id="paint5_radial_6_117" cx="0" cy="0" r="1" gradientUnits="userSpaceOnUse" gradientTransform="translate(20.7098 19.5935) scale(4.23793)">
<stop/>
<stop offset="0.5677" stop-opacity="0.909804"/>
<stop offset="0.674168" stop-opacity="0.776471"/>
<stop offset="0.770273" stop-opacity="0.631373"/>
<stop offset="0.810482" stop-opacity="0.552941"/>
<stop offset="0.898729" stop-opacity="0.309804"/>
<stop offset="0.986011" stop-opacity="0.0156863"/>
<stop offset="1" stop-opacity="0"/>
</radialGradient>
<linearGradient id="paint6_linear_6_117" x1="20.6106" y1="21.581" x2="20.6106" y2="16.6683" gradientUnits="userSpaceOnUse">
<stop stop-color="#FFF1FB"/>
<stop offset="1" stop-color="white"/>
</linearGradient>
<linearGradient id="paint7_linear_6_117" x1="34.9029" y1="39.5264" x2="34.9029" y2="30.697" gradientUnits="userSpaceOnUse">
<stop stop-color="#FDEBE7"/>
<stop offset="1" stop-color="#F6FCFC"/>
</linearGradient>
<linearGradient id="paint8_linear_6_117" x1="18.022" y1="34.4632" x2="26.8995" y2="34.4632" gradientUnits="userSpaceOnUse">
<stop stop-color="#FBE5EC"/>
<stop offset="1" stop-color="#FBE5EC" stop-opacity="0.01"/>
</linearGradient>
<clipPath id="clip0_6_117">
<rect width="48" height="48" fill="white"/>
</clipPath>
</defs>
</svg>
