<svg width="48" height="48" viewBox="0 0 48 48" fill="none" xmlns="http://www.w3.org/2000/svg">
<path d="M10.5 43.5L37.5 43.5C40.8137 43.5 43.5 40.8137 43.5 37.5L43.5 10.5C43.5 7.18629 40.8137 4.5 37.5 4.5L10.5 4.5C7.18629 4.5 4.5 7.18629 4.5 10.5L4.5 37.5C4.5 40.8137 7.18629 43.5 10.5 43.5Z" fill="#F2F2F2"/>
<path d="M24.468 36.585L31.968 30.585L32.25 30L32.25 21.36L39.4695 15.585L38.532 14.415L31.5 20.04L24.468 14.415L23.532 15.585L30.75 21.36L30.75 29.64L24 35.04L17.25 29.64L17.25 21L16.968 20.415L9.46802 14.415L8.53052 15.585L15.75 21.36L15.75 30L16.032 30.585L23.532 36.585L24.468 36.585Z" fill="#474F50"/>
<path d="M20.625 41.25L27.375 41.25C27.9963 41.25 28.5 40.7463 28.5 40.125L28.5 33.375C28.5 32.7537 27.9963 32.25 27.375 32.25L20.625 32.25C20.0037 32.25 19.5 32.7537 19.5 33.375L19.5 40.125C19.5 40.7463 20.0037 41.25 20.625 41.25Z" fill="#E16E7B"/>
<path d="M28.125 30.75L34.875 30.75C35.4963 30.75 36 30.2463 36 29.625L36 22.875C36 22.2537 35.4963 21.75 34.875 21.75L28.125 21.75C27.5037 21.75 27 22.2537 27 22.875L27 29.625C27 30.2463 27.5037 30.75 28.125 30.75Z" fill="#A779BE"/>
<path d="M13.125 30.75L19.875 30.75C20.4963 30.75 21 30.2463 21 29.625L21 22.875C21 22.2537 20.4963 21.75 19.875 21.75L13.125 21.75C12.5037 21.75 12 22.2537 12 22.875L12 29.625C12 30.2463 12.5037 30.75 13.125 30.75Z" fill="#A779BE"/>
<path d="M8.625 16.5L15.375 16.5C15.9963 16.5 16.5 15.9963 16.5 15.375L16.5 8.625C16.5 8.00368 15.9963 7.5 15.375 7.5L8.625 7.5C8.00368 7.5 7.5 8.00368 7.5 8.625L7.5 15.375C7.5 15.9963 8.00368 16.5 8.625 16.5Z" fill="#58B072"/>
<path d="M20.625 16.5L27.375 16.5C27.9963 16.5 28.5 15.9963 28.5 15.375L28.5 8.625C28.5 8.00368 27.9963 7.5 27.375 7.5L20.625 7.5C20.0037 7.5 19.5 8.00368 19.5 8.625L19.5 15.375C19.5 15.9963 20.0037 16.5 20.625 16.5Z" fill="#58B072"/>
<path d="M32.625 16.5L39.375 16.5C39.9963 16.5 40.5 15.9963 40.5 15.375L40.5 8.625C40.5 8.00368 39.9963 7.5 39.375 7.5L32.625 7.5C32.0037 7.5 31.5 8.00368 31.5 8.625L31.5 15.375C31.5 15.9963 32.0037 16.5 32.625 16.5Z" fill="#58B072"/>
</svg>
