<svg width="24" height="24" viewBox="0 0 24 24" fill="none" xmlns="http://www.w3.org/2000/svg">
<g id="location">
<path id="Vector" d="M11 22.95V20.95C8.91667 20.7167 7.12933 19.8543 5.638 18.363C4.146 16.871 3.28333 15.0833 3.05 13H1.05V11H3.05C3.28333 8.91665 4.146 7.12899 5.638 5.63699C7.12933 4.14565 8.91667 3.28332 11 3.04999V1.04999H13V3.04999C15.0833 3.28332 16.871 4.14565 18.363 5.63699C19.8543 7.12899 20.7167 8.91665 20.95 11H22.95V13H20.95C20.7167 15.0833 19.8543 16.871 18.363 18.363C16.871 19.8543 15.0833 20.7167 13 20.95V22.95H11ZM12 19C13.9333 19 15.5833 18.3167 16.95 16.95C18.3167 15.5833 19 13.9333 19 12C19 10.0667 18.3167 8.41665 16.95 7.04999C15.5833 5.68332 13.9333 4.99999 12 4.99999C10.0667 4.99999 8.41667 5.68332 7.05 7.04999C5.68333 8.41665 5 10.0667 5 12C5 13.9333 5.68333 15.5833 7.05 16.95C8.41667 18.3167 10.0667 19 12 19ZM12 16C10.9 16 9.95833 15.6083 9.175 14.825C8.39167 14.0417 8 13.1 8 12C8 10.9 8.39167 9.95832 9.175 9.17499C9.95833 8.39165 10.9 7.99999 12 7.99999C13.1 7.99999 14.0417 8.39165 14.825 9.17499C15.6083 9.95832 16 10.9 16 12C16 13.1 15.6083 14.0417 14.825 14.825C14.0417 15.6083 13.1 16 12 16Z" fill="#65C5F6"/>
</g>
</svg>
