<svg width="48" height="48" viewBox="0 0 48 48" fill="none" xmlns="http://www.w3.org/2000/svg">
<path d="M24 44.2315C35.1837 44.2315 44.2499 35.1653 44.2499 23.9815C44.2499 12.7978 35.1837 3.7316 24 3.7316C12.8162 3.7316 3.75 12.7978 3.75 23.9815C3.75 35.1653 12.8162 44.2315 24 44.2315Z" fill="#F4D035"/>
<path opacity="0.15" d="M24.0014 7.49213C21.8346 7.49175 19.689 7.91817 17.687 8.7471C15.6851 9.57604 13.866 10.7913 12.3338 12.3233C10.8015 13.8553 9.58599 15.6741 8.75671 17.6759C7.92744 19.6777 7.50061 21.8232 7.50061 23.99C7.50209 26.4298 8.04465 28.8388 9.08921 31.0436C10.1338 33.2485 11.6543 35.1941 13.5414 36.7406H16.1351C18.498 38.2052 21.2214 38.9845 24.0014 38.9913C26.7862 38.9871 29.5149 38.2077 31.8819 36.7406H34.4558C36.3433 35.1944 37.8644 33.2488 38.9095 31.044C39.9545 28.8392 40.4976 26.43 40.4994 23.99C40.4994 19.6145 38.7612 15.4182 35.6672 12.3242C32.5733 9.23025 28.3769 7.49213 24.0014 7.49213Z" fill="black"/>
<path d="M27.6185 26.6603C27.201 27.2274 26.6562 27.6884 26.0279 28.0065C25.3997 28.3246 24.7056 28.4907 24.0014 28.4915C23.2975 28.491 22.6035 28.3253 21.9753 28.0078C21.3471 27.6902 20.8022 27.2297 20.3843 26.6632C18.3677 27.1385 16.6263 27.9998 15.395 29.1312C14.1638 30.2626 13.502 31.6095 13.4988 32.9902H34.5011C34.4991 31.6092 33.8381 30.2619 32.6074 29.13C31.3766 27.9981 29.6353 27.1361 27.6185 26.6603Z" fill="white"/>
<path d="M24.0014 21.7421C26.486 21.7421 28.5001 19.7279 28.5001 17.2434C28.5001 14.7588 26.486 12.7448 24.0014 12.7448C21.5169 12.7448 19.5027 14.7588 19.5027 17.2434C19.5027 19.7279 21.5169 21.7421 24.0014 21.7421Z" fill="white"/>
<path d="M19.5027 17.2434C19.5032 19.2322 19.9774 21.1393 20.821 22.5453C21.6646 23.9514 22.8086 24.7413 24.0014 24.7413C24.5924 24.7419 25.1777 24.5484 25.7239 24.1717C26.27 23.795 26.7663 23.2426 27.1843 22.546C27.6023 21.8495 27.934 21.0225 28.1602 20.1121C28.3865 19.2018 28.5029 18.2261 28.5029 17.2407L19.5027 17.2434Z" fill="white"/>
</svg>
