<svg width="48" height="48" viewBox="0 0 48 48" fill="none" xmlns="http://www.w3.org/2000/svg">
<path d="M24 3.75C18.6294 3.75 13.4787 5.88348 9.68109 9.68109C5.88348 13.4787 3.75 18.6294 3.75 24C3.75628 27.3478 4.59247 30.6418 6.18375 33.5873L6.14708 33.5576C7.16768 35.955 7.09298 36.6088 6.93241 38.6114C6.82052 40.0072 6.44192 41.4319 5.96911 42.2347C5.54039 42.9608 5.19646 43.7122 5.19646 43.9032C5.19646 44.494 8.60933 44.2865 11.6302 43.5126C14.9903 42.6528 15.464 42.5638 17.9815 43.3333C18.0073 43.3415 18.0331 43.3497 18.0589 43.3579C18.1702 43.3919 18.2614 43.4179 18.3807 43.4548L18.3525 43.4324C20.187 43.9702 22.0884 44.2456 24.0001 44.2503C26.6593 44.2503 29.2926 43.7265 31.7494 42.7089C34.2063 41.6912 36.4386 40.1996 38.319 38.3192C40.1994 36.4388 41.691 34.2065 42.7086 31.7497C43.7263 29.2928 44.2501 26.6596 44.2501 24.0003C44.2501 18.6297 42.1166 13.479 38.319 9.68141C34.5214 5.8838 29.3706 3.75 24 3.75Z" fill="#47AD5D"/>
<path d="M31.5945 32.9183C33.1126 32.1933 33.8183 31.2837 34.0617 29.7386C34.2472 28.561 34.1616 28.2598 31.8524 27.1479C28.9161 25.7342 29.0971 25.7274 27.8322 27.2979C27.045 28.2753 26.7067 28.5924 26.4512 28.5924C23.4589 27.7834 20.4142 25.4463 19.4458 22.3774C19.4458 22.246 19.7643 21.7652 20.1536 21.3089C21.2982 19.9675 21.2994 19.9346 20.3001 17.4724C19.1496 14.6379 18.7604 14.6572 17.507 14.6053C16.2243 14.5522 15.819 14.7561 15.0075 15.8625C14.1678 17.0072 13.8681 17.9281 13.875 19.3414C13.8841 21.1351 14.4719 22.5754 16.1744 24.9721C19.0971 29.0866 21.9486 31.3198 26.0564 32.7114C28.5689 33.5625 30.1239 33.6206 31.5945 32.9183Z" fill="white"/>
</svg>
