<?xml version="1.0" encoding="UTF-8" standalone="no"?>
<svg
   xmlns:dc="http://purl.org/dc/elements/1.1/"
   xmlns:cc="http://creativecommons.org/ns#"
   xmlns:rdf="http://www.w3.org/1999/02/22-rdf-syntax-ns#"
   xmlns:svg="http://www.w3.org/2000/svg"
   xmlns="http://www.w3.org/2000/svg"
   xmlns:xlink="http://www.w3.org/1999/xlink"
   xmlns:sodipodi="http://sodipodi.sourceforge.net/DTD/sodipodi-0.dtd"
   xmlns:inkscape="http://www.inkscape.org/namespaces/inkscape"
   inkscape:version="1.0 (4035a4fb49, 2020-05-01)"
   sodipodi:docname="swell-foop.svg"
   id="svg63"
   version="1.1"
   height="64"
   width="64">
  <metadata
     id="metadata67">
    <rdf:RDF>
      <cc:Work
         rdf:about="">
        <dc:format>image/svg+xml</dc:format>
        <dc:type
           rdf:resource="http://purl.org/dc/dcmitype/StillImage" />
        <dc:title></dc:title>
      </cc:Work>
    </rdf:RDF>
  </metadata>
  <sodipodi:namedview
     inkscape:current-layer="svg63"
     inkscape:window-maximized="1"
     inkscape:window-y="36"
     inkscape:window-x="0"
     inkscape:cy="37.709151"
     inkscape:cx="-5.5180036"
     inkscape:zoom="4.391796"
     showgrid="false"
     id="namedview65"
     inkscape:window-height="964"
     inkscape:window-width="1920"
     inkscape:pageshadow="2"
     inkscape:pageopacity="0"
     guidetolerance="10"
     gridtolerance="10"
     objecttolerance="10"
     borderopacity="1"
     bordercolor="#666666"
     pagecolor="#ffffff" />
  <defs
     id="defs23">
    <linearGradient
       id="a">
      <stop
         id="stop2"
         offset="0"
         stop-color="#68b0e3" />
      <stop
         id="stop4"
         offset="1"
         stop-color="#6884e3" />
    </linearGradient>
    <linearGradient
       xlink:href="#a"
       gradientUnits="userSpaceOnUse"
       y2="24.003"
       y1="12"
       x2="18.002"
       x1="18.002"
       id="f" />
    <linearGradient
       xlink:href="#a"
       gradientUnits="userSpaceOnUse"
       y2="24.003"
       y1="12"
       x2="30.004"
       x1="30.004"
       id="e" />
    <linearGradient
       xlink:href="#a"
       gradientUnits="userSpaceOnUse"
       y2="35.999"
       y1="24"
       x2="30.004"
       x1="30.004"
       id="d" />
    <linearGradient
       gradientUnits="userSpaceOnUse"
       y2="35.999"
       y1="24"
       x2="18.002"
       x1="18.002"
       id="c">
      <stop
         id="stop10"
         offset="0"
         stop-color="#eeee4c" />
      <stop
         id="stop12"
         offset="1"
         stop-color="#ebf06f" />
    </linearGradient>
    <filter
       color-interpolation-filters="sRGB"
       height="1.12"
       width="1.12"
       y="-.060005"
       x="-.059995"
       id="h">
      <feGaussianBlur
         id="feGaussianBlur15"
         stdDeviation="0.78264129" />
    </filter>
    <linearGradient
       gradientUnits="userSpaceOnUse"
       gradientTransform="matrix(3.7795 0 0 3.7795 .00014324 .031541)"
       y2="1.852"
       y1="15.081"
       x2="7.9373"
       x1="7.9373"
       id="linearGradient862-3">
      <stop
         id="stop18"
         offset="0"
         stop-color="#1a1a1a" />
      <stop
         id="stop20"
         offset="1"
         stop-color="#4d4d4d" />
    </linearGradient>
    <linearGradient
       gradientUnits="userSpaceOnUse"
       y2="12.461"
       y1="57.955"
       x2="45.628"
       x1="45.628"
       id="b">
      <stop
         id="stop2-3"
         offset="0" />
      <stop
         id="stop4-6"
         offset="1"
         stop-opacity="0" />
    </linearGradient>
    <linearGradient
       id="b-3"
       x1="399.57"
       x2="399.57"
       y1="545.8"
       y2="517.8"
       gradientTransform="matrix(2.1429,0,0,2.1429,-931.07906,-1121.2347)"
       gradientUnits="userSpaceOnUse">
      <stop
         stop-color="#3889e9"
         offset="0"
         id="stop850" />
      <stop
         stop-color="#5ea5fb"
         offset="1"
         id="stop852" />
    </linearGradient>
    <linearGradient
       id="linearGradient1001"
       x1="32.431"
       x2="32.431"
       y1="61.873"
       y2="1.6692"
       gradientTransform="matrix(0.26457812,0,0,0.26457812,-31.030853,-6.0244504)"
       gradientUnits="userSpaceOnUse">
      <stop
         stop-color="#1d2123"
         offset="0"
         id="stop855" />
      <stop
         stop-color="#33393e"
         offset="1"
         id="stop857" />
    </linearGradient>
    <linearGradient
       id="linearGradient1057">
      <stop
         stop-color="#fff"
         offset="0"
         id="stop4-3" />
      <stop
         stop-color="#fff"
         stop-opacity="0"
         offset="1"
         id="stop6" />
    </linearGradient>
    <linearGradient
       id="linearGradient982"
       x1="34.999"
       x2="34.999"
       y1="27.545"
       y2="52.847"
       gradientTransform="matrix(1.5625,0,0,1.5625,0.40633,-5.1891)"
       gradientUnits="userSpaceOnUse">
      <stop
         stop-color="#32b4ff"
         offset="0"
         id="stop9" />
      <stop
         stop-color="#3287ff"
         offset="1"
         id="stop11" />
    </linearGradient>
    <style
       type="text/css"
       id="style14" />
    <style
       type="text/css"
       id="style16" />
    <linearGradient
       id="linearGradient1047"
       x1="21.314"
       x2="21.314"
       y1="18.052"
       y2="43.681"
       gradientTransform="matrix(1.5625,0,0,1.5625,-9.2253,1.3231)"
       gradientUnits="userSpaceOnUse">
      <stop
         stop-color="#14dc78"
         offset="0"
         id="stop18-7" />
      <stop
         stop-color="#14a03c"
         offset="1"
         id="stop20-5" />
    </linearGradient>
    <linearGradient
       id="linearGradient1049"
       x1="41.729"
       x2="41.729"
       y1="12.316"
       y2="37.368"
       gradientTransform="matrix(1.5625,0,0,1.5625,-8.1072,-10.908)"
       gradientUnits="userSpaceOnUse">
      <stop
         stop-color="#ff3c64"
         offset="0"
         id="stop23" />
      <stop
         stop-color="#ff4628"
         offset="1"
         id="stop25" />
    </linearGradient>
    <linearGradient
       id="linearGradient1059"
       x1="34.427"
       x2="34.427"
       y1="32.234"
       y2="39.768"
       gradientTransform="matrix(1,0,0,1.2271,0.20646,-10.975)"
       gradientUnits="userSpaceOnUse"
       xlink:href="#linearGradient1057" />
    <linearGradient
       id="linearGradient1063"
       x1="34.427"
       x2="34.427"
       y1="32.234"
       y2="39.768"
       gradientTransform="matrix(1,0,0,1.2271,-12.55,-19.793)"
       gradientUnits="userSpaceOnUse"
       xlink:href="#linearGradient1057" />
    <linearGradient
       id="linearGradient1067"
       x1="34.427"
       x2="34.427"
       y1="32.234"
       y2="39.768"
       gradientTransform="matrix(1,0,0,1.2271,5.7554,-25.761)"
       gradientUnits="userSpaceOnUse"
       xlink:href="#linearGradient1057" />
    <filter
       id="filter2761"
       x="-.024"
       y="-.024"
       width="1.048"
       height="1.048"
       color-interpolation-filters="sRGB">
      <feGaussianBlur
         stdDeviation="0.14552168"
         id="feGaussianBlur31" />
    </filter>
    <linearGradient
       id="linearGradient1024"
       x1="1.3315"
       x2="15.65"
       y1="15.576"
       y2="1.17"
       gradientTransform="matrix(3.7796,0,0,3.7796,72.4059,0.53085)"
       gradientUnits="userSpaceOnUse">
      <stop
         stop-color="#dddfe1"
         offset="0"
         id="stop34" />
      <stop
         stop-color="#f3f4f6"
         stop-opacity=".99608"
         offset="1"
         id="stop36" />
    </linearGradient>
    <filter
       id="filter2761-3"
       x="-.024"
       y="-.024"
       width="1.048"
       height="1.048"
       color-interpolation-filters="sRGB">
      <feGaussianBlur
         stdDeviation="0.14552168"
         id="feGaussianBlur2" />
    </filter>
    <linearGradient
       id="linearGradient1024-6"
       x1="1.3315"
       x2="15.65"
       y1="15.576"
       y2="1.17"
       gradientTransform="translate(0 -.07421)"
       gradientUnits="userSpaceOnUse">
      <stop
         stop-color="#dddfe1"
         offset="0"
         id="stop5" />
      <stop
         stop-color="#f3f4f6"
         stop-opacity=".99608"
         offset="1"
         id="stop7" />
    </linearGradient>
    <filter
       color-interpolation-filters="sRGB"
       height="1.1062"
       width="1.138"
       y="-.053076"
       x="-.069001"
       id="filter911">
      <feGaussianBlur
         id="feGaussianBlur2-3"
         stdDeviation="0.5750183" />
    </filter>
    <linearGradient
       gradientUnits="userSpaceOnUse"
       y2="24.006"
       y1="24.006"
       x2="34.001"
       x1="14"
       id="linearGradient921">
      <stop
         id="stop5-6"
         offset="0"
         stop-color="#fff" />
      <stop
         id="stop7-7"
         offset="1"
         stop-color="#e6e6e6" />
    </linearGradient>
    <linearGradient
       gradientUnits="userSpaceOnUse"
       gradientTransform="matrix(3.7795,0,0,3.7795,-78.322643,0.031541)"
       y2="1.852"
       y1="15.081"
       x2="7.9373"
       x1="7.9373"
       id="linearGradient862-3-3">
      <stop
         id="stop10-5"
         offset="0"
         stop-color="#1a1a1a" />
      <stop
         id="stop12-6"
         offset="1"
         stop-color="#4d4d4d" />
    </linearGradient>
    <filter
       id="filter11290"
       x="-0.024"
       y="-0.024"
       width="1.048"
       height="1.048"
       color-interpolation-filters="sRGB">
      <feGaussianBlur
         stdDeviation="0.15875313"
         id="feGaussianBlur861" />
    </filter>
    <linearGradient
       gradientTransform="translate(-3.4204102e-6)"
       gradientUnits="userSpaceOnUse"
       y2="2.6618319"
       x2="61.642139"
       y1="61.846527"
       x1="2.6369677"
       id="linearGradient1195"
       xlink:href="#linearGradient1193"
       inkscape:collect="always" />
    <linearGradient
       id="linearGradient1193"
       inkscape:collect="always">
      <stop
         id="stop1189"
         offset="0"
         style="stop-color:#1a1a1a;stop-opacity:1" />
      <stop
         id="stop1191"
         offset="1"
         style="stop-color:#4d4d4d;stop-opacity:1" />
    </linearGradient>
  </defs>
  <circle
     transform="scale(3.779602)"
     style="image-rendering:optimizeSpeed"
     id="circle943"
     stroke-width="0.14032"
     opacity="0.25"
     filter="url(#filter11290)"
     r="7.9376998"
     cy="8.4665003"
     cx="8.4665003" />
  <circle
     r="30"
     cy="32"
     cx="32"
     id="path1187"
     style="fill:url(#linearGradient1195);fill-opacity:1;stroke-width:1.96169;stroke-linecap:round;image-rendering:optimizeSpeed" />
  <circle
     cx="32"
     cy="32"
     r="30.000999"
     fill-opacity="0"
     stroke-width="1.5715"
     id="circle890" />
  <g
     id="g49"
     opacity=".5"
     filter="url(#h)"
     transform="translate(-7.8136 11.068)">
    <g
       id="g47"
       transform="matrix(1.3043 0 0 1.3043 8.5092 -10.372)">
      <path
         id="path39"
         d="m26.402 12h7.203c1.324 0 2.398 1.074 2.398 2.398v7.207c0 1.324-1.074 2.398-2.398 2.398h-7.203c-1.324 0-2.398-1.074-2.398-2.398v-7.207c0-1.324 1.074-2.398 2.398-2.398" />
      <path
         id="path41"
         d="m14.398 12h7.207c1.324 0 2.398 1.074 2.398 2.398v7.207c0 1.324-1.074 2.398-2.398 2.398h-7.207c-1.324 0-2.398-1.074-2.398-2.398v-7.207c0-1.324 1.074-2.398 2.398-2.398" />
      <path
         id="path43"
         d="m26.402 24h7.203c1.324 0 2.398 1.074 2.398 2.398v7.203c0 1.324-1.074 2.398-2.398 2.398h-7.203c-1.324 0-2.398-1.074-2.398-2.398v-7.203c0-1.324 1.074-2.398 2.398-2.398" />
      <path
         id="path45"
         d="m14.398 24h7.207c1.324 0 2.398 1.074 2.398 2.398v7.203c0 1.324-1.074 2.398-2.398 2.398h-7.207c-1.324 0-2.398-1.074-2.398-2.398v-7.203c0-1.324 1.074-2.398 2.398-2.398" />
    </g>
  </g>
  <g
     id="g61"
     transform="translate(-7.8136 11.068)">
    <g
       id="g59"
       transform="matrix(1.3043 0 0 1.3043 8.5092 -10.372)">
      <path
         id="path51"
         fill="url(#e)"
         d="m26.402 12h7.203c1.324 0 2.398 1.074 2.398 2.398v7.207c0 1.324-1.074 2.398-2.398 2.398h-7.203c-1.324 0-2.398-1.074-2.398-2.398v-7.207c0-1.324 1.074-2.398 2.398-2.398" />
      <path
         id="path53"
         fill="url(#f)"
         d="m14.398 12h7.207c1.324 0 2.398 1.074 2.398 2.398v7.207c0 1.324-1.074 2.398-2.398 2.398h-7.207c-1.324 0-2.398-1.074-2.398-2.398v-7.207c0-1.324 1.074-2.398 2.398-2.398" />
      <path
         id="path55"
         fill="url(#d)"
         d="m26.402 24h7.203c1.324 0 2.398 1.074 2.398 2.398v7.203c0 1.324-1.074 2.398-2.398 2.398h-7.203c-1.324 0-2.398-1.074-2.398-2.398v-7.203c0-1.324 1.074-2.398 2.398-2.398" />
      <path
         id="path57"
         fill="url(#c)"
         d="m14.398 24h7.207c1.324 0 2.398 1.074 2.398 2.398v7.203c0 1.324-1.074 2.398-2.398 2.398h-7.207c-1.324 0-2.398-1.074-2.398-2.398v-7.203c0-1.324 1.074-2.398 2.398-2.398" />
    </g>
  </g>
  <g
     transform="matrix(3.779602,0,0,3.779602,-104.70906,-13.234835)"
     fill="#5e4aa6"
     stroke-width="0.26458"
     id="g884">
    <circle
       cx="-330.35001"
       cy="-328.37"
       r="0"
       image-rendering="optimizeSpeed"
       id="circle862" />
    <circle
       cx="-330.35001"
       cy="-328.38"
       r="0"
       image-rendering="optimizeSpeed"
       id="circle864" />
    <circle
       cx="-330.35001"
       cy="-328.38"
       r="0"
       image-rendering="optimizeSpeed"
       id="circle866" />
    <circle
       cx="-352.63"
       cy="-336.84"
       r="0"
       image-rendering="optimizeSpeed"
       id="circle868" />
    <circle
       cx="-330.35001"
       cy="-328.37"
       r="0"
       image-rendering="optimizeSpeed"
       id="circle870" />
    <circle
       cx="-305.84"
       cy="-328.26999"
       r="0"
       image-rendering="optimizeSpeed"
       id="circle872" />
    <circle
       cx="-305.84"
       cy="-328.28"
       r="0"
       image-rendering="optimizeSpeed"
       id="circle874" />
    <circle
       cx="-305.84"
       cy="-328.28"
       r="0"
       image-rendering="optimizeSpeed"
       id="circle876" />
    <circle
       cx="-328.12"
       cy="-336.73999"
       r="0"
       image-rendering="optimizeSpeed"
       id="circle878" />
    <circle
       cx="-305.84"
       cy="-328.26999"
       r="0"
       image-rendering="optimizeSpeed"
       id="circle880" />
    <circle
       cx="-305.03"
       cy="-328.69"
       r="0"
       id="circle882" />
  </g>
  <circle
     cx="-72.700058"
     cy="18.30928"
     r="0"
     fill="url(#b)"
     stroke-width="1.5715"
     id="circle892"
     style="fill:url(#b-3)" />
  <circle
     style="stroke-width:1"
     cx="-1427.2711"
     cy="-1254.8348"
     r="0"
     fill="#5e4aa6"
     id="circle41" />
  <circle
     style="stroke-width:1"
     cx="-327.72119"
     cy="10.620123"
     r="0"
     fill="#5e4aa6"
     fill-rule="evenodd"
     id="circle43" />
</svg>
