<svg width="127" height="61" viewBox="0 0 127 61" fill="none" xmlns="http://www.w3.org/2000/svg">
<g id="avatar-pointer">
<g id="avatar-pointer_2">
<rect x="36.5" y="38.5" width="90" height="22" rx="1.5" fill="#F4AD1A"/>
<path id="Dener Garcia" d="M47.7841 54H44.9588V45.2727H47.8736C48.7287 45.2727 49.4631 45.4474 50.0767 45.7969C50.6903 46.1435 51.1605 46.642 51.4872 47.2926C51.8168 47.9403 51.9815 48.7173 51.9815 49.6236C51.9815 50.5327 51.8153 51.3139 51.483 51.9673C51.1534 52.6207 50.6761 53.1236 50.0511 53.4759C49.4261 53.8253 48.6705 54 47.7841 54ZM46.2756 52.8494H47.7116C48.3764 52.8494 48.929 52.7244 49.3693 52.4744C49.8097 52.2216 50.1392 51.8565 50.358 51.3793C50.5767 50.8991 50.6861 50.3139 50.6861 49.6236C50.6861 48.9389 50.5767 48.358 50.358 47.8807C50.142 47.4034 49.8196 47.0412 49.3906 46.794C48.9616 46.5469 48.429 46.4233 47.7926 46.4233H46.2756V52.8494ZM56.3377 54.1321C55.6928 54.1321 55.1374 53.9943 54.6715 53.7188C54.2085 53.4403 53.8505 53.0497 53.5977 52.5469C53.3477 52.0412 53.2227 51.4489 53.2227 50.7699C53.2227 50.0994 53.3477 49.5085 53.5977 48.9972C53.8505 48.4858 54.2028 48.0866 54.6545 47.7997C55.109 47.5128 55.6403 47.3693 56.2482 47.3693C56.6175 47.3693 56.9755 47.4304 57.3221 47.5526C57.6687 47.6747 57.9798 47.8665 58.2553 48.1278C58.5309 48.3892 58.7482 48.7287 58.9073 49.1463C59.0664 49.5611 59.146 50.0653 59.146 50.6591V51.1108H53.9428V50.1562H57.8974C57.8974 49.821 57.8292 49.5241 57.6928 49.2656C57.5565 49.0043 57.3647 48.7983 57.1175 48.6477C56.8732 48.4972 56.5863 48.4219 56.2567 48.4219C55.8988 48.4219 55.5863 48.5099 55.3192 48.6861C55.055 48.8594 54.8505 49.0866 54.7056 49.3679C54.5636 49.6463 54.4925 49.9489 54.4925 50.2756V51.0213C54.4925 51.4588 54.5692 51.831 54.7227 52.1378C54.8789 52.4446 55.0962 52.679 55.3746 52.8409C55.6531 53 55.9783 53.0795 56.3505 53.0795C56.592 53.0795 56.8121 53.0455 57.011 52.9773C57.2099 52.9062 57.3817 52.8011 57.5266 52.6619C57.6715 52.5227 57.7823 52.3509 57.859 52.1463L59.065 52.3636C58.9684 52.7187 58.7951 53.0298 58.5451 53.2969C58.2979 53.5611 57.9869 53.767 57.6119 53.9148C57.2397 54.0597 56.815 54.1321 56.3377 54.1321ZM61.8338 50.1136V54H60.5597V47.4545H61.7827V48.5199H61.8636C62.0142 48.1733 62.25 47.8949 62.571 47.6847C62.8949 47.4744 63.3026 47.3693 63.794 47.3693C64.2401 47.3693 64.6307 47.4631 64.9659 47.6506C65.3011 47.8352 65.5611 48.1108 65.7457 48.4773C65.9304 48.8437 66.0227 49.2969 66.0227 49.8366V54H64.7486V49.9901C64.7486 49.5156 64.625 49.1449 64.3778 48.8778C64.1307 48.608 63.7912 48.473 63.3594 48.473C63.0639 48.473 62.8011 48.5369 62.571 48.6648C62.3438 48.7926 62.1634 48.9801 62.0298 49.2273C61.8991 49.4716 61.8338 49.767 61.8338 50.1136ZM70.5526 54.1321C69.9077 54.1321 69.3523 53.9943 68.8864 53.7188C68.4233 53.4403 68.0653 53.0497 67.8125 52.5469C67.5625 52.0412 67.4375 51.4489 67.4375 50.7699C67.4375 50.0994 67.5625 49.5085 67.8125 48.9972C68.0653 48.4858 68.4176 48.0866 68.8693 47.7997C69.3239 47.5128 69.8551 47.3693 70.4631 47.3693C70.8324 47.3693 71.1903 47.4304 71.5369 47.5526C71.8835 47.6747 72.1946 47.8665 72.4702 48.1278C72.7457 48.3892 72.9631 48.7287 73.1222 49.1463C73.2813 49.5611 73.3608 50.0653 73.3608 50.6591V51.1108H68.1577V50.1562H72.1122C72.1122 49.821 72.044 49.5241 71.9077 49.2656C71.7713 49.0043 71.5795 48.7983 71.3324 48.6477C71.0881 48.4972 70.8011 48.4219 70.4716 48.4219C70.1136 48.4219 69.8011 48.5099 69.5341 48.6861C69.2699 48.8594 69.0653 49.0866 68.9205 49.3679C68.7784 49.6463 68.7074 49.9489 68.7074 50.2756V51.0213C68.7074 51.4588 68.7841 51.831 68.9375 52.1378C69.0938 52.4446 69.3111 52.679 69.5895 52.8409C69.8679 53 70.1932 53.0795 70.5653 53.0795C70.8068 53.0795 71.027 53.0455 71.2259 52.9773C71.4247 52.9062 71.5966 52.8011 71.7415 52.6619C71.8864 52.5227 71.9972 52.3509 72.0739 52.1463L73.2798 52.3636C73.1832 52.7187 73.0099 53.0298 72.7599 53.2969C72.5128 53.5611 72.2017 53.767 71.8267 53.9148C71.4545 54.0597 71.0298 54.1321 70.5526 54.1321ZM74.7745 54V47.4545H76.006V48.4943H76.0742C76.1935 48.142 76.4038 47.8651 76.7049 47.6634C77.0089 47.4588 77.3526 47.3565 77.7362 47.3565C77.8157 47.3565 77.9094 47.3594 78.0174 47.3651C78.1282 47.3707 78.2148 47.3778 78.2773 47.3864V48.6051C78.2262 48.5909 78.1353 48.5753 78.0046 48.5582C77.8739 48.5384 77.7433 48.5284 77.6126 48.5284C77.3114 48.5284 77.043 48.5923 76.8072 48.7202C76.5742 48.8452 76.3896 49.0199 76.2532 49.2443C76.1168 49.4659 76.0487 49.7187 76.0487 50.0028V54H74.7745ZM88.5643 48.0298C88.4819 47.7713 88.3711 47.5398 88.2319 47.3352C88.0955 47.1278 87.9322 46.9517 87.7418 46.8068C87.5515 46.6591 87.3342 46.5469 87.0898 46.4702C86.8484 46.3935 86.5827 46.3551 86.293 46.3551C85.8015 46.3551 85.3583 46.4815 84.9634 46.7344C84.5685 46.9872 84.256 47.358 84.0259 47.8466C83.7987 48.3324 83.685 48.9276 83.685 49.6321C83.685 50.3395 83.8001 50.9375 84.0302 51.4261C84.2603 51.9148 84.5756 52.2855 84.9762 52.5384C85.3768 52.7912 85.8327 52.9176 86.3441 52.9176C86.8185 52.9176 87.2319 52.821 87.5842 52.6278C87.9393 52.4347 88.2134 52.1619 88.4066 51.8097C88.6026 51.4545 88.7006 51.0369 88.7006 50.5568L89.0415 50.6207H86.5444V49.5341H89.9748V50.527C89.9748 51.2599 89.8185 51.8963 89.506 52.4361C89.1964 52.973 88.7674 53.3878 88.2191 53.6804C87.6737 53.973 87.0487 54.1193 86.3441 54.1193C85.5543 54.1193 84.8612 53.9375 84.2646 53.5739C83.6708 53.2102 83.2077 52.6946 82.8754 52.027C82.543 51.3565 82.3768 50.5611 82.3768 49.6406C82.3768 48.9446 82.4734 48.3196 82.6665 47.7656C82.8597 47.2116 83.131 46.7415 83.4805 46.3551C83.8327 45.9659 84.2461 45.669 84.7205 45.4645C85.1978 45.2571 85.7191 45.1534 86.2844 45.1534C86.756 45.1534 87.195 45.223 87.6012 45.3622C88.0103 45.5014 88.3739 45.6989 88.6921 45.9545C89.0131 46.2102 89.2788 46.5142 89.489 46.8665C89.6992 47.2159 89.8413 47.6037 89.9151 48.0298H88.5643ZM93.4489 54.1449C93.0341 54.1449 92.6591 54.0682 92.3239 53.9148C91.9886 53.7585 91.723 53.5327 91.527 53.2372C91.3338 52.9418 91.2372 52.5795 91.2372 52.1506C91.2372 51.7812 91.3082 51.4773 91.4503 51.2386C91.5923 51 91.7841 50.8111 92.0256 50.6719C92.267 50.5327 92.5369 50.4276 92.8352 50.3565C93.1335 50.2855 93.4375 50.2315 93.7472 50.1946C94.1392 50.1491 94.4574 50.1122 94.7017 50.0838C94.946 50.0526 95.1236 50.0028 95.2344 49.9347C95.3452 49.8665 95.4006 49.7557 95.4006 49.6023V49.5724C95.4006 49.2003 95.2955 48.9119 95.0852 48.7074C94.8778 48.5028 94.5682 48.4006 94.1562 48.4006C93.7273 48.4006 93.3892 48.4957 93.142 48.6861C92.8977 48.8736 92.7287 49.0824 92.6349 49.3125L91.4375 49.0398C91.5795 48.642 91.7869 48.321 92.0597 48.0767C92.3352 47.8295 92.652 47.6506 93.0099 47.5398C93.3679 47.4261 93.7443 47.3693 94.1392 47.3693C94.4006 47.3693 94.6776 47.4006 94.9702 47.4631C95.2656 47.5227 95.5412 47.6335 95.7969 47.7955C96.0554 47.9574 96.267 48.1889 96.4318 48.4901C96.5966 48.7884 96.679 49.1761 96.679 49.6534V54H95.4347V53.1051H95.3835C95.3011 53.2699 95.1776 53.4318 95.0128 53.5909C94.848 53.75 94.6364 53.8821 94.3778 53.9872C94.1193 54.0923 93.8097 54.1449 93.4489 54.1449ZM93.7259 53.1222C94.0781 53.1222 94.3793 53.0526 94.6293 52.9134C94.8821 52.7741 95.0739 52.5923 95.2045 52.3679C95.3381 52.1406 95.4048 51.8977 95.4048 51.6392V50.7955C95.3594 50.8409 95.2713 50.8835 95.1406 50.9233C95.0128 50.9602 94.8665 50.9929 94.7017 51.0213C94.5369 51.0469 94.3764 51.071 94.2202 51.0938C94.0639 51.1136 93.9332 51.1307 93.8281 51.1449C93.581 51.1761 93.3551 51.2287 93.1506 51.3026C92.9489 51.3764 92.7869 51.483 92.6648 51.6222C92.5455 51.7585 92.4858 51.9403 92.4858 52.1676C92.4858 52.483 92.6023 52.7216 92.8352 52.8835C93.0682 53.0426 93.3651 53.1222 93.7259 53.1222ZM98.3761 54V47.4545H99.6076V48.4943H99.6758C99.7951 48.142 100.005 47.8651 100.306 47.6634C100.61 47.4588 100.954 47.3565 101.338 47.3565C101.417 47.3565 101.511 47.3594 101.619 47.3651C101.73 47.3707 101.816 47.3778 101.879 47.3864V48.6051C101.828 48.5909 101.737 48.5753 101.606 48.5582C101.475 48.5384 101.345 48.5284 101.214 48.5284C100.913 48.5284 100.645 48.5923 100.409 48.7202C100.176 48.8452 99.9911 49.0199 99.8548 49.2443C99.7184 49.4659 99.6502 49.7187 99.6502 50.0028V54H98.3761ZM105.504 54.1321C104.871 54.1321 104.325 53.9886 103.868 53.7017C103.413 53.4119 103.064 53.0128 102.82 52.5043C102.575 51.9957 102.453 51.4134 102.453 50.7571C102.453 50.0923 102.578 49.5057 102.828 48.9972C103.078 48.4858 103.43 48.0866 103.885 47.7997C104.339 47.5128 104.875 47.3693 105.491 47.3693C105.989 47.3693 106.432 47.4616 106.821 47.6463C107.21 47.8281 107.524 48.0838 107.763 48.4134C108.004 48.7429 108.148 49.1278 108.193 49.5682H106.953C106.885 49.2614 106.729 48.9972 106.484 48.7756C106.243 48.554 105.919 48.4432 105.513 48.4432C105.158 48.4432 104.847 48.5369 104.58 48.7244C104.315 48.9091 104.109 49.1733 103.962 49.517C103.814 49.858 103.74 50.2614 103.74 50.7273C103.74 51.2045 103.813 51.6165 103.957 51.9631C104.102 52.3097 104.307 52.5781 104.571 52.7685C104.838 52.9588 105.152 53.054 105.513 53.054C105.754 53.054 105.973 53.0099 106.169 52.9219C106.368 52.831 106.534 52.7017 106.668 52.5341C106.804 52.3665 106.899 52.1648 106.953 51.929H108.193C108.148 52.3523 108.01 52.7301 107.78 53.0625C107.55 53.3949 107.241 53.6562 106.855 53.8466C106.472 54.0369 106.021 54.1321 105.504 54.1321ZM109.556 54V47.4545H110.83V54H109.556ZM110.199 46.4446C109.978 46.4446 109.787 46.3707 109.628 46.223C109.472 46.0724 109.394 45.8935 109.394 45.6861C109.394 45.4759 109.472 45.2969 109.628 45.1491C109.787 44.9986 109.978 44.9233 110.199 44.9233C110.421 44.9233 110.61 44.9986 110.766 45.1491C110.925 45.2969 111.005 45.4759 111.005 45.6861C111.005 45.8935 110.925 46.0724 110.766 46.223C110.61 46.3707 110.421 46.4446 110.199 46.4446ZM114.449 54.1449C114.034 54.1449 113.659 54.0682 113.324 53.9148C112.989 53.7585 112.723 53.5327 112.527 53.2372C112.334 52.9418 112.237 52.5795 112.237 52.1506C112.237 51.7812 112.308 51.4773 112.45 51.2386C112.592 51 112.784 50.8111 113.026 50.6719C113.267 50.5327 113.537 50.4276 113.835 50.3565C114.134 50.2855 114.438 50.2315 114.747 50.1946C115.139 50.1491 115.457 50.1122 115.702 50.0838C115.946 50.0526 116.124 50.0028 116.234 49.9347C116.345 49.8665 116.401 49.7557 116.401 49.6023V49.5724C116.401 49.2003 116.295 48.9119 116.085 48.7074C115.878 48.5028 115.568 48.4006 115.156 48.4006C114.727 48.4006 114.389 48.4957 114.142 48.6861C113.898 48.8736 113.729 49.0824 113.635 49.3125L112.438 49.0398C112.58 48.642 112.787 48.321 113.06 48.0767C113.335 47.8295 113.652 47.6506 114.01 47.5398C114.368 47.4261 114.744 47.3693 115.139 47.3693C115.401 47.3693 115.678 47.4006 115.97 47.4631C116.266 47.5227 116.541 47.6335 116.797 47.7955C117.055 47.9574 117.267 48.1889 117.432 48.4901C117.597 48.7884 117.679 49.1761 117.679 49.6534V54H116.435V53.1051H116.384C116.301 53.2699 116.178 53.4318 116.013 53.5909C115.848 53.75 115.636 53.8821 115.378 53.9872C115.119 54.0923 114.81 54.1449 114.449 54.1449ZM114.726 53.1222C115.078 53.1222 115.379 53.0526 115.629 52.9134C115.882 52.7741 116.074 52.5923 116.205 52.3679C116.338 52.1406 116.405 51.8977 116.405 51.6392V50.7955C116.359 50.8409 116.271 50.8835 116.141 50.9233C116.013 50.9602 115.866 50.9929 115.702 51.0213C115.537 51.0469 115.376 51.071 115.22 51.0938C115.064 51.1136 114.933 51.1307 114.828 51.1449C114.581 51.1761 114.355 51.2287 114.151 51.3026C113.949 51.3764 113.787 51.483 113.665 51.6222C113.545 51.7585 113.486 51.9403 113.486 52.1676C113.486 52.483 113.602 52.7216 113.835 52.8835C114.068 53.0426 114.365 53.1222 114.726 53.1222Z" fill="#0D0C0D"/>
<rect x="36.5" y="38.5" width="90" height="22" rx="1.5" stroke="#FAFAFA"/>
</g>
<path id="pointer-figma" d="M8.97594 37.5224L1.90011 4.23452C1.5455 2.56627 3.3077 1.24813 4.80787 2.0595L35.8545 18.8512C37.4072 19.691 37.1899 21.9838 35.5071 22.517L20.907 27.1433C20.4905 27.2752 20.1287 27.5399 19.8769 27.8969L12.5665 38.2595C11.5606 39.6854 9.33875 39.2293 8.97594 37.5224Z" fill="#F4AD1A" stroke="#FAFAFA" stroke-width="3" stroke-miterlimit="4.13357" stroke-linecap="round"/>
</g>
</svg>
