<svg width="746" height="579" viewBox="0 0 746 579" fill="none" xmlns="http://www.w3.org/2000/svg">
<g id="illustration">
<g id="Phone-dk">
<rect id="Rectangle 5" x="139" y="112" width="167" height="126" rx="18" fill="url(#paint0_linear_24_1491)"/>
<rect id="phone-dag" x="266" y="98" width="226" height="439" rx="12" fill="url(#paint1_linear_24_1491)"/>
<ellipse id="camera-dag" cx="379.5" cy="119" rx="8.5" ry="8" stroke="#FAFAFA"/>
<path id="wireframe01" d="M420 154V252M420 154H283M420 154L283 252M420 252H283M420 252L283 154M283 252V154" stroke="#FAFAFA"/>
<path id="wireframe05" d="M475 393V510M475 393H283M475 393L283 510M475 510H283M475 510L283 393M283 510V393" stroke="#FAFAFA"/>
<rect id="brect04" x="283" y="300" width="137" height="7" stroke="#FAFAFA"/>
<rect id="brect03" x="283" y="289" width="137" height="7" stroke="#FAFAFA"/>
<rect id="brect02" x="283" y="278" width="137" height="7" stroke="#FAFAFA"/>
<rect id="brect01" x="283" y="260" width="137" height="10" stroke="#FAFAFA"/>
<rect id="rect06" x="431" y="330" width="44" height="4" stroke="#FAFAFA"/>
<rect id="rect05" x="431" y="321" width="44" height="5" stroke="#FAFAFA"/>
<path id="wireframe04" d="M475 282V317M475 282H431M475 282L431 317M475 317H431M475 317L431 282M431 317V282" stroke="#FAFAFA"/>
<rect id="rect04" x="431" y="267" width="44" height="4" stroke="#FAFAFA"/>
<rect id="rect03" x="431" y="258" width="44" height="5" stroke="#FAFAFA"/>
<path id="wireframe03" d="M475 218V253M475 218H431M475 218L431 253M475 253H431M475 253L431 218M431 253V218" stroke="#FAFAFA"/>
<rect id="rect02" x="431" y="204" width="44" height="4" stroke="#FAFAFA"/>
<rect id="rect01" x="431" y="195" width="44" height="5" stroke="#FAFAFA"/>
<path id="wireframe02" d="M475 154V189M475 154H431M475 154L431 189M475 189H431M475 189L431 154M431 189V154" stroke="#FAFAFA"/>
<ellipse id="circ04" cx="408" cy="326" rx="9" ry="8" stroke="#FAFAFA"/>
<ellipse id="circ03" cx="387.5" cy="326" rx="8.5" ry="8" stroke="#FAFAFA"/>
<circle id="circ02" cx="367" cy="326" r="8" stroke="#FAFAFA"/>
<rect id="circ01" x="283" y="317" width="69" height="17" rx="8.5" stroke="#FAFAFA"/>
<g id="lupa">
<path id="Vector 1" d="M457.367 365.5L461.499 369.5" stroke="#FAFAFA" stroke-width="2" stroke-linecap="round"/>
<ellipse id="camera-dag_2" cx="453.751" cy="362" rx="4.13222" ry="4" stroke="#FAFAFA" stroke-width="2"/>
</g>
<rect id="circ05" x="283" y="353" width="192" height="21" rx="10.5" stroke="#FAFAFA"/>
<path id="linePhone-dag" d="M484 135H274" stroke="#FAFAFA" stroke-width="2" stroke-linecap="round"/>
</g>
<g id="burbble">
<rect id="Rectangle 18" x="462" y="257" width="67" height="48" rx="18" fill="url(#paint2_linear_24_1491)"/>
<rect id="Rectangle 23" x="44" y="204" width="80" height="59" rx="18" fill="url(#paint3_linear_24_1491)"/>
<rect id="Rectangle 15" x="195" y="439" width="77" height="57" rx="18" fill="url(#paint4_linear_24_1491)"/>
<rect id="Rectangle 26" x="137" y="260" width="56" height="36" rx="18" fill="url(#paint5_linear_24_1491)"/>
<rect id="Rectangle 25" x="475" y="109" width="81" height="56" rx="18" fill="url(#paint6_linear_24_1491)"/>
<rect id="Rectangle 22" x="222" y="299" width="62" height="47" rx="18" fill="url(#paint7_linear_24_1491)"/>
<rect id="Rectangle 16" x="62" y="335" width="166" height="118" rx="18" fill="url(#paint8_linear_24_1491)"/>
<rect id="Rectangle 21" x="8" y="253" width="152" height="101" rx="18" fill="url(#paint9_linear_24_1491)"/>
<rect id="Rectangle 6" x="206" y="52" width="67" height="43" rx="18" fill="url(#paint10_linear_24_1491)"/>
<rect id="Rectangle 7" x="165" y="514" width="74" height="54" rx="18" fill="url(#paint11_linear_24_1491)"/>
<rect id="Rectangle 17" x="536" width="67" height="48" rx="18" fill="url(#paint12_linear_24_1491)"/>
<rect id="Rectangle 20" x="558" y="305" width="56" height="36" rx="18" fill="url(#paint13_linear_24_1491)"/>
<rect id="Rectangle 8" x="567" y="24" width="107" height="74" rx="18" fill="url(#paint14_linear_24_1491)"/>
<rect id="Rectangle 24" x="581" y="467" width="144" height="110" rx="18" fill="url(#paint15_linear_24_1491)"/>
<rect id="Rectangle 10" x="532" y="149" width="165" height="121" rx="18" fill="url(#paint16_linear_24_1491)"/>
<rect id="Rectangle 12" x="661" y="392" width="85" height="58" rx="18" fill="url(#paint17_linear_24_1491)"/>
<rect id="Rectangle 27" x="548" y="374" width="85" height="58" rx="18" fill="url(#paint18_linear_24_1491)"/>
<rect id="Rectangle 11" x="602" y="244" width="144" height="110" rx="18" fill="url(#paint19_linear_24_1491)"/>
<rect id="Rectangle 13" x="87" y="508" width="103" height="69" rx="18" fill="url(#paint20_linear_24_1491)"/>
<rect id="Rectangle 9" x="694" y="73" width="52" height="36" rx="18" fill="url(#paint21_linear_24_1491)"/>
<rect id="Rectangle 14" x="8" y="472" width="52" height="36" rx="18" fill="url(#paint22_linear_24_1491)"/>
<rect id="Rectangle 4" x="72" y="61" width="134" height="93" rx="18" fill="url(#paint23_linear_24_1491)"/>
<rect id="Rectangle 3" y="7" width="134" height="93" rx="18" fill="url(#paint24_linear_24_1491)"/>
</g>
<g id="code-symbol-dag">
<path id="Vector 2" d="M67.3448 286.034L38 301.896L67.3448 318.155" stroke="#FAFAFA" stroke-width="4" stroke-miterlimit="2" stroke-linecap="round"/>
<path id="Vector 3" d="M100.655 318.155L130 302.293L100.655 286.034" stroke="#FAFAFA" stroke-width="4" stroke-miterlimit="2" stroke-linecap="round"/>
<path id="Vector 4" d="M98.2758 267L70.1206 337.19" stroke="#FAFAFA" stroke-width="4" stroke-miterlimit="2" stroke-linecap="round"/>
</g>
<g id="line-symbol-dag">
<path id="Vector 26" d="M704.073 337.287H667.515" stroke="#FF6682" stroke-width="4" stroke-miterlimit="2"/>
<path id="Vector 27" d="M660.868 337.287H616" stroke="#FAFAFA" stroke-width="4" stroke-miterlimit="2"/>
<path id="Vector 25" d="M714.875 328.147H672.5" stroke="#FAFAFA" stroke-width="4" stroke-miterlimit="2"/>
<path id="Vector 24" d="M693.272 319.838H658.375" stroke="#FAFAFA" stroke-width="4" stroke-miterlimit="2"/>
<path id="Vector 23" d="M650.897 319.838H616" stroke="#FAFAFA" stroke-width="4" stroke-miterlimit="2"/>
<path id="Vector 22" d="M719.86 310.698H674.993" stroke="#FAFAFA" stroke-width="4" stroke-miterlimit="2"/>
<path id="Vector 21" d="M670.007 310.698H616" stroke="#FAFAFA" stroke-width="4" stroke-miterlimit="2"/>
<path id="Vector 20" d="M650.066 301.559H616" stroke="#FF6682" stroke-width="4" stroke-miterlimit="2"/>
<path id="Vector 19" d="M726.507 292.419H674.993" stroke="#FAFAFA" stroke-width="4" stroke-miterlimit="2"/>
<path id="Vector 18" d="M667.515 292.419H616" stroke="#FAFAFA" stroke-width="4" stroke-miterlimit="2"/>
<path id="Vector 17" d="M714.875 283.279H683.301" stroke="#FAFAFA" stroke-width="4" stroke-miterlimit="2"/>
<path id="Vector 16" d="M677.485 283.279H616" stroke="#FAFAFA" stroke-width="4" stroke-miterlimit="2"/>
<path id="Vector 15" d="M655.052 274.14H616" stroke="#FAFAFA" stroke-width="4" stroke-miterlimit="2"/>
<path id="Vector 11" d="M729 265H680.809" stroke="#FF6682" stroke-width="4" stroke-miterlimit="2"/>
<path id="Vector 12" d="M709.059 274.14H660.868" stroke="#FAFAFA" stroke-width="4" stroke-miterlimit="2"/>
<path id="Vector 13" d="M697.427 301.559H656.713" stroke="#FAFAFA" stroke-width="4" stroke-miterlimit="2"/>
<path id="Vector 14" d="M665.853 328.147H616" stroke="#FF6682" stroke-width="4" stroke-miterlimit="2"/>
<path id="Vector 10" d="M675.823 265H616" stroke="#FAFAFA" stroke-width="4" stroke-miterlimit="2"/>
</g>
<g id="search-symbol-dag">
<path id="Vector 28" d="M616.667 211.333L590 238" stroke="#FAFAFA" stroke-width="4" stroke-miterlimit="2"/>
<path id="Ellipse 1" d="M623.333 223C627.551 223 631.662 221.666 635.076 219.19C638.491 216.713 641.035 213.22 642.345 209.211C643.654 205.201 643.663 200.88 642.369 196.866C641.076 192.851 638.546 189.348 635.141 186.858C631.737 184.367 627.632 183.017 623.414 183C619.196 182.983 615.08 184.3 611.656 186.763C608.232 189.226 605.673 192.708 604.347 196.713C603.021 200.717 602.995 205.038 604.273 209.058" stroke="#FAFAFA" stroke-width="4"/>
</g>
<g id="user">
<circle id="Ellipse 2" cx="217.042" cy="166.28" r="18.2797" stroke="#FAFAFA" stroke-width="4"/>
<path id="Vector 29" d="M185 204L185.892 202.513C189.868 195.887 197.029 191.832 204.757 191.832L228.459 191.832C235.997 191.832 243.011 195.692 247.045 202.061L248.273 204" stroke="#FAFAFA" stroke-width="4" stroke-miterlimit="2" stroke-linecap="round"/>
</g>
<g id="pointer">
<path id="pointer-figma" d="M536.976 523.522L529.9 490.235C529.545 488.566 531.308 487.248 532.808 488.06L563.854 504.851C565.407 505.691 565.19 507.984 563.507 508.517L548.907 513.143C548.491 513.275 548.129 513.54 547.877 513.897L540.566 524.259C539.561 525.685 537.339 525.229 536.976 523.522Z" fill="#F4AD1A" stroke="#FAFAFA" stroke-width="3" stroke-miterlimit="4.13357" stroke-linecap="round"/>
<rect id="Rectangle 28" x="564.5" y="519.5" width="90" height="22" rx="1.5" fill="#F4AD1A" stroke="#FAFAFA"/>
<path id="Dener Garcia" d="M575.784 535H572.959V526.273H575.874C576.729 526.273 577.463 526.447 578.077 526.797C578.69 527.143 579.161 527.642 579.487 528.293C579.817 528.94 579.982 529.717 579.982 530.624C579.982 531.533 579.815 532.314 579.483 532.967C579.153 533.621 578.676 534.124 578.051 534.476C577.426 534.825 576.67 535 575.784 535ZM574.276 533.849H575.712C576.376 533.849 576.929 533.724 577.369 533.474C577.81 533.222 578.139 532.857 578.358 532.379C578.577 531.899 578.686 531.314 578.686 530.624C578.686 529.939 578.577 529.358 578.358 528.881C578.142 528.403 577.82 528.041 577.391 527.794C576.962 527.547 576.429 527.423 575.793 527.423H574.276V533.849ZM584.338 535.132C583.693 535.132 583.137 534.994 582.672 534.719C582.208 534.44 581.85 534.05 581.598 533.547C581.348 533.041 581.223 532.449 581.223 531.77C581.223 531.099 581.348 530.509 581.598 529.997C581.85 529.486 582.203 529.087 582.654 528.8C583.109 528.513 583.64 528.369 584.248 528.369C584.618 528.369 584.975 528.43 585.322 528.553C585.669 528.675 585.98 528.866 586.255 529.128C586.531 529.389 586.748 529.729 586.907 530.146C587.066 530.561 587.146 531.065 587.146 531.659V532.111H581.943V531.156H585.897C585.897 530.821 585.829 530.524 585.693 530.266C585.556 530.004 585.365 529.798 585.118 529.648C584.873 529.497 584.586 529.422 584.257 529.422C583.899 529.422 583.586 529.51 583.319 529.686C583.055 529.859 582.85 530.087 582.706 530.368C582.564 530.646 582.493 530.949 582.493 531.276V532.021C582.493 532.459 582.569 532.831 582.723 533.138C582.879 533.445 583.096 533.679 583.375 533.841C583.653 534 583.978 534.08 584.35 534.08C584.592 534.08 584.812 534.045 585.011 533.977C585.21 533.906 585.382 533.801 585.527 533.662C585.672 533.523 585.782 533.351 585.859 533.146L587.065 533.364C586.968 533.719 586.795 534.03 586.545 534.297C586.298 534.561 585.987 534.767 585.612 534.915C585.24 535.06 584.815 535.132 584.338 535.132ZM589.834 531.114V535H588.56V528.455H589.783V529.52H589.864C590.014 529.173 590.25 528.895 590.571 528.685C590.895 528.474 591.303 528.369 591.794 528.369C592.24 528.369 592.631 528.463 592.966 528.651C593.301 528.835 593.561 529.111 593.746 529.477C593.93 529.844 594.023 530.297 594.023 530.837V535H592.749V530.99C592.749 530.516 592.625 530.145 592.378 529.878C592.131 529.608 591.791 529.473 591.359 529.473C591.064 529.473 590.801 529.537 590.571 529.665C590.344 529.793 590.163 529.98 590.03 530.227C589.899 530.472 589.834 530.767 589.834 531.114ZM598.553 535.132C597.908 535.132 597.352 534.994 596.886 534.719C596.423 534.44 596.065 534.05 595.812 533.547C595.562 533.041 595.438 532.449 595.438 531.77C595.438 531.099 595.562 530.509 595.812 529.997C596.065 529.486 596.418 529.087 596.869 528.8C597.324 528.513 597.855 528.369 598.463 528.369C598.832 528.369 599.19 528.43 599.537 528.553C599.884 528.675 600.195 528.866 600.47 529.128C600.746 529.389 600.963 529.729 601.122 530.146C601.281 530.561 601.361 531.065 601.361 531.659V532.111H596.158V531.156H600.112C600.112 530.821 600.044 530.524 599.908 530.266C599.771 530.004 599.58 529.798 599.332 529.648C599.088 529.497 598.801 529.422 598.472 529.422C598.114 529.422 597.801 529.51 597.534 529.686C597.27 529.859 597.065 530.087 596.92 530.368C596.778 530.646 596.707 530.949 596.707 531.276V532.021C596.707 532.459 596.784 532.831 596.938 533.138C597.094 533.445 597.311 533.679 597.589 533.841C597.868 534 598.193 534.08 598.565 534.08C598.807 534.08 599.027 534.045 599.226 533.977C599.425 533.906 599.597 533.801 599.741 533.662C599.886 533.523 599.997 533.351 600.074 533.146L601.28 533.364C601.183 533.719 601.01 534.03 600.76 534.297C600.513 534.561 600.202 534.767 599.827 534.915C599.455 535.06 599.03 535.132 598.553 535.132ZM602.775 535V528.455H604.006V529.494H604.074C604.194 529.142 604.404 528.865 604.705 528.663C605.009 528.459 605.353 528.357 605.736 528.357C605.816 528.357 605.909 528.359 606.017 528.365C606.128 528.371 606.215 528.378 606.277 528.386V529.605C606.226 529.591 606.135 529.575 606.005 529.558C605.874 529.538 605.743 529.528 605.613 529.528C605.311 529.528 605.043 529.592 604.807 529.72C604.574 529.845 604.39 530.02 604.253 530.244C604.117 530.466 604.049 530.719 604.049 531.003V535H602.775ZM616.564 529.03C616.482 528.771 616.371 528.54 616.232 528.335C616.096 528.128 615.932 527.952 615.742 527.807C615.551 527.659 615.334 527.547 615.09 527.47C614.848 527.393 614.583 527.355 614.293 527.355C613.801 527.355 613.358 527.482 612.963 527.734C612.569 527.987 612.256 528.358 612.026 528.847C611.799 529.332 611.685 529.928 611.685 530.632C611.685 531.339 611.8 531.937 612.03 532.426C612.26 532.915 612.576 533.286 612.976 533.538C613.377 533.791 613.833 533.918 614.344 533.918C614.819 533.918 615.232 533.821 615.584 533.628C615.939 533.435 616.213 533.162 616.407 532.81C616.603 532.455 616.701 532.037 616.701 531.557L617.042 531.621H614.544V530.534H617.975V531.527C617.975 532.26 617.819 532.896 617.506 533.436C617.196 533.973 616.767 534.388 616.219 534.68C615.674 534.973 615.049 535.119 614.344 535.119C613.554 535.119 612.861 534.938 612.265 534.574C611.671 534.21 611.208 533.695 610.875 533.027C610.543 532.357 610.377 531.561 610.377 530.641C610.377 529.945 610.473 529.32 610.667 528.766C610.86 528.212 611.131 527.741 611.48 527.355C611.833 526.966 612.246 526.669 612.721 526.464C613.198 526.257 613.719 526.153 614.284 526.153C614.756 526.153 615.195 526.223 615.601 526.362C616.01 526.501 616.374 526.699 616.692 526.955C617.013 527.21 617.279 527.514 617.489 527.866C617.699 528.216 617.841 528.604 617.915 529.03H616.564ZM621.449 535.145C621.034 535.145 620.659 535.068 620.324 534.915C619.989 534.759 619.723 534.533 619.527 534.237C619.334 533.942 619.237 533.58 619.237 533.151C619.237 532.781 619.308 532.477 619.45 532.239C619.592 532 619.784 531.811 620.026 531.672C620.267 531.533 620.537 531.428 620.835 531.357C621.134 531.286 621.438 531.232 621.747 531.195C622.139 531.149 622.457 531.112 622.702 531.084C622.946 531.053 623.124 531.003 623.234 530.935C623.345 530.866 623.401 530.756 623.401 530.602V530.572C623.401 530.2 623.295 529.912 623.085 529.707C622.878 529.503 622.568 529.401 622.156 529.401C621.727 529.401 621.389 529.496 621.142 529.686C620.898 529.874 620.729 530.082 620.635 530.312L619.438 530.04C619.58 529.642 619.787 529.321 620.06 529.077C620.335 528.83 620.652 528.651 621.01 528.54C621.368 528.426 621.744 528.369 622.139 528.369C622.401 528.369 622.678 528.401 622.97 528.463C623.266 528.523 623.541 528.634 623.797 528.795C624.055 528.957 624.267 529.189 624.432 529.49C624.597 529.788 624.679 530.176 624.679 530.653V535H623.435V534.105H623.384C623.301 534.27 623.178 534.432 623.013 534.591C622.848 534.75 622.636 534.882 622.378 534.987C622.119 535.092 621.81 535.145 621.449 535.145ZM621.726 534.122C622.078 534.122 622.379 534.053 622.629 533.913C622.882 533.774 623.074 533.592 623.205 533.368C623.338 533.141 623.405 532.898 623.405 532.639V531.795C623.359 531.841 623.271 531.884 623.141 531.923C623.013 531.96 622.866 531.993 622.702 532.021C622.537 532.047 622.376 532.071 622.22 532.094C622.064 532.114 621.933 532.131 621.828 532.145C621.581 532.176 621.355 532.229 621.151 532.303C620.949 532.376 620.787 532.483 620.665 532.622C620.545 532.759 620.486 532.94 620.486 533.168C620.486 533.483 620.602 533.722 620.835 533.884C621.068 534.043 621.365 534.122 621.726 534.122ZM626.376 535V528.455H627.608V529.494H627.676C627.795 529.142 628.005 528.865 628.306 528.663C628.61 528.459 628.954 528.357 629.338 528.357C629.417 528.357 629.511 528.359 629.619 528.365C629.73 528.371 629.816 528.378 629.879 528.386V529.605C629.828 529.591 629.737 529.575 629.606 529.558C629.475 529.538 629.345 529.528 629.214 529.528C628.913 529.528 628.645 529.592 628.409 529.72C628.176 529.845 627.991 530.02 627.855 530.244C627.718 530.466 627.65 530.719 627.65 531.003V535H626.376ZM633.504 535.132C632.871 535.132 632.325 534.989 631.868 534.702C631.413 534.412 631.064 534.013 630.82 533.504C630.575 532.996 630.453 532.413 630.453 531.757C630.453 531.092 630.578 530.506 630.828 529.997C631.078 529.486 631.43 529.087 631.885 528.8C632.339 528.513 632.875 528.369 633.491 528.369C633.989 528.369 634.432 528.462 634.821 528.646C635.21 528.828 635.524 529.084 635.763 529.413C636.004 529.743 636.148 530.128 636.193 530.568H634.953C634.885 530.261 634.729 529.997 634.484 529.776C634.243 529.554 633.919 529.443 633.513 529.443C633.158 529.443 632.847 529.537 632.58 529.724C632.315 529.909 632.109 530.173 631.962 530.517C631.814 530.858 631.74 531.261 631.74 531.727C631.74 532.205 631.813 532.616 631.957 532.963C632.102 533.31 632.307 533.578 632.571 533.768C632.838 533.959 633.152 534.054 633.513 534.054C633.754 534.054 633.973 534.01 634.169 533.922C634.368 533.831 634.534 533.702 634.668 533.534C634.804 533.366 634.899 533.165 634.953 532.929H636.193C636.148 533.352 636.01 533.73 635.78 534.062C635.55 534.395 635.241 534.656 634.855 534.847C634.472 535.037 634.021 535.132 633.504 535.132ZM637.556 535V528.455H638.83V535H637.556ZM638.199 527.445C637.978 527.445 637.787 527.371 637.628 527.223C637.472 527.072 637.394 526.893 637.394 526.686C637.394 526.476 637.472 526.297 637.628 526.149C637.787 525.999 637.978 525.923 638.199 525.923C638.421 525.923 638.61 525.999 638.766 526.149C638.925 526.297 639.005 526.476 639.005 526.686C639.005 526.893 638.925 527.072 638.766 527.223C638.61 527.371 638.421 527.445 638.199 527.445ZM642.449 535.145C642.034 535.145 641.659 535.068 641.324 534.915C640.989 534.759 640.723 534.533 640.527 534.237C640.334 533.942 640.237 533.58 640.237 533.151C640.237 532.781 640.308 532.477 640.45 532.239C640.592 532 640.784 531.811 641.026 531.672C641.267 531.533 641.537 531.428 641.835 531.357C642.134 531.286 642.438 531.232 642.747 531.195C643.139 531.149 643.457 531.112 643.702 531.084C643.946 531.053 644.124 531.003 644.234 530.935C644.345 530.866 644.401 530.756 644.401 530.602V530.572C644.401 530.2 644.295 529.912 644.085 529.707C643.878 529.503 643.568 529.401 643.156 529.401C642.727 529.401 642.389 529.496 642.142 529.686C641.898 529.874 641.729 530.082 641.635 530.312L640.438 530.04C640.58 529.642 640.787 529.321 641.06 529.077C641.335 528.83 641.652 528.651 642.01 528.54C642.368 528.426 642.744 528.369 643.139 528.369C643.401 528.369 643.678 528.401 643.97 528.463C644.266 528.523 644.541 528.634 644.797 528.795C645.055 528.957 645.267 529.189 645.432 529.49C645.597 529.788 645.679 530.176 645.679 530.653V535H644.435V534.105H644.384C644.301 534.27 644.178 534.432 644.013 534.591C643.848 534.75 643.636 534.882 643.378 534.987C643.119 535.092 642.81 535.145 642.449 535.145ZM642.726 534.122C643.078 534.122 643.379 534.053 643.629 533.913C643.882 533.774 644.074 533.592 644.205 533.368C644.338 533.141 644.405 532.898 644.405 532.639V531.795C644.359 531.841 644.271 531.884 644.141 531.923C644.013 531.96 643.866 531.993 643.702 532.021C643.537 532.047 643.376 532.071 643.22 532.094C643.064 532.114 642.933 532.131 642.828 532.145C642.581 532.176 642.355 532.229 642.151 532.303C641.949 532.376 641.787 532.483 641.665 532.622C641.545 532.759 641.486 532.94 641.486 533.168C641.486 533.483 641.602 533.722 641.835 533.884C642.068 534.043 642.365 534.122 642.726 534.122Z" fill="#0D0C0D"/>
</g>
<path id="I" d="M432.068 536.727V560H428.557V536.727H432.068Z" fill="url(#paint25_linear_24_1491)"/>
<path id="U" d="M334.523 536.727H338.045V552.034C338.045 553.663 337.663 555.106 336.898 556.364C336.133 557.614 335.057 558.598 333.67 559.318C332.284 560.03 330.659 560.386 328.795 560.386C326.939 560.386 325.318 560.03 323.932 559.318C322.545 558.598 321.47 557.614 320.705 556.364C319.939 555.106 319.557 553.663 319.557 552.034V536.727H323.068V551.75C323.068 552.803 323.299 553.739 323.761 554.557C324.231 555.375 324.894 556.019 325.75 556.489C326.606 556.951 327.621 557.182 328.795 557.182C329.977 557.182 330.996 556.951 331.852 556.489C332.716 556.019 333.375 555.375 333.83 554.557C334.292 553.739 334.523 552.803 334.523 551.75V536.727Z" fill="url(#paint26_linear_24_1491)"/>
<path id="X" d="M355 536.727L360.568 545.83H360.75L366.318 536.727H370.386L363.136 548.364L370.432 560H366.341L360.75 551.023H360.568L354.977 560H350.886L358.307 548.364L350.932 536.727H355Z" fill="url(#paint27_linear_24_1491)"/>
<path id="U_2" d="M412.523 536.727H416.045V552.034C416.045 553.663 415.663 555.106 414.898 556.364C414.133 557.614 413.057 558.598 411.67 559.318C410.284 560.03 408.659 560.386 406.795 560.386C404.939 560.386 403.318 560.03 401.932 559.318C400.545 558.598 399.47 557.614 398.705 556.364C397.939 555.106 397.557 553.663 397.557 552.034V536.727H401.068V551.75C401.068 552.803 401.299 553.739 401.761 554.557C402.231 555.375 402.894 556.019 403.75 556.489C404.606 556.951 405.621 557.182 406.795 557.182C407.977 557.182 408.996 556.951 409.852 556.489C410.716 556.019 411.375 555.375 411.83 554.557C412.292 553.739 412.523 552.803 412.523 551.75V536.727Z" fill="url(#paint28_linear_24_1491)"/>
<path id="DEVELOPEMENT" d="M322.125 577H319.881V569.727H322.224C322.93 569.727 323.534 569.873 324.036 570.164C324.537 570.453 324.922 570.868 325.19 571.411C325.457 571.95 325.591 572.597 325.591 573.349C325.591 574.107 325.456 574.759 325.186 575.306C324.916 575.851 324.523 576.27 324.007 576.563C323.491 576.854 322.864 577 322.125 577ZM320.761 576.219H322.068C322.67 576.219 323.168 576.103 323.563 575.871C323.959 575.639 324.253 575.308 324.447 574.88C324.642 574.451 324.739 573.941 324.739 573.349C324.739 572.762 324.643 572.257 324.451 571.833C324.259 571.407 323.973 571.08 323.592 570.853C323.21 570.623 322.736 570.509 322.168 570.509H320.761V576.219ZM330.618 577V569.727H335.007V570.509H331.499V572.966H334.78V573.747H331.499V576.219H335.064V577H330.618ZM340.443 569.727L342.602 575.849H342.687L344.846 569.727H345.77L343.099 577H342.19L339.52 569.727H340.443ZM350.453 577V569.727H354.842V570.509H351.333V572.966H354.614V573.747H351.333V576.219H354.899V577H350.453ZM359.979 577V569.727H360.86V576.219H364.24V577H359.979ZM375.007 573.364C375.007 574.131 374.869 574.794 374.592 575.352C374.315 575.911 373.935 576.342 373.452 576.645C372.969 576.948 372.417 577.099 371.797 577.099C371.177 577.099 370.625 576.948 370.142 576.645C369.659 576.342 369.279 575.911 369.002 575.352C368.725 574.794 368.587 574.131 368.587 573.364C368.587 572.597 368.725 571.934 369.002 571.375C369.279 570.816 369.659 570.385 370.142 570.082C370.625 569.779 371.177 569.628 371.797 569.628C372.417 569.628 372.969 569.779 373.452 570.082C373.935 570.385 374.315 570.816 374.592 571.375C374.869 571.934 375.007 572.597 375.007 573.364ZM374.155 573.364C374.155 572.734 374.05 572.202 373.839 571.769C373.631 571.336 373.348 571.008 372.99 570.786C372.635 570.563 372.237 570.452 371.797 570.452C371.357 570.452 370.958 570.563 370.6 570.786C370.245 571.008 369.962 571.336 369.752 571.769C369.543 572.202 369.439 572.734 369.439 573.364C369.439 573.993 369.543 574.525 369.752 574.958C369.962 575.391 370.245 575.719 370.6 575.942C370.958 576.164 371.357 576.276 371.797 576.276C372.237 576.276 372.635 576.164 372.99 575.942C373.348 575.719 373.631 575.391 373.839 574.958C374.05 574.525 374.155 573.993 374.155 573.364ZM380.038 577V569.727H382.495C383.066 569.727 383.532 569.83 383.895 570.036C384.259 570.24 384.529 570.516 384.704 570.864C384.879 571.212 384.967 571.6 384.967 572.028C384.967 572.457 384.879 572.846 384.704 573.197C384.531 573.547 384.264 573.826 383.902 574.035C383.54 574.241 383.076 574.344 382.51 574.344H380.748V573.562H382.481C382.872 573.562 383.186 573.495 383.422 573.36C383.659 573.225 383.831 573.043 383.937 572.813C384.046 572.581 384.101 572.32 384.101 572.028C384.101 571.737 384.046 571.477 383.937 571.247C383.831 571.018 383.658 570.838 383.419 570.707C383.18 570.575 382.862 570.509 382.467 570.509H380.919V577H380.038ZM389.936 577V569.727H394.325V570.509H390.816V572.966H394.098V573.747H390.816V576.219H394.382V577H389.936ZM399.462 569.727H400.513L402.985 575.764H403.07L405.542 569.727H406.593V577H405.769V571.474H405.698L403.425 577H402.63L400.357 571.474H400.286V577H399.462V569.727ZM411.909 577V569.727H416.298V570.509H412.789V572.966H416.071V573.747H412.789V576.219H416.355V577H411.909ZM427.202 569.727V577H426.35L422.387 571.29H422.316V577H421.435V569.727H422.288L426.265 575.452H426.336V569.727H427.202ZM432.117 570.509V569.727H437.571V570.509H435.285V577H434.404V570.509H432.117Z" fill="url(#paint29_linear_24_1491)"/>
<g id="idea">
<path id="Vector 30" d="M134.529 417.201L134.935 421.89C135.204 424.992 137.8 427.373 140.913 427.373H148.79C151.903 427.373 154.499 424.992 154.768 421.89L155.1 418.054C155.266 416.136 156.355 414.416 157.757 413.097C160.173 410.822 163.695 406.431 164.739 399.516C165.811 392.418 162.534 388.111 159.65 385.053C155.23 380.365 148.936 378.624 144.784 378.624C140.231 378.624 137.016 379.991 134.874 381.169C129.517 384.115 124.429 390.406 124.428 399.516C124.428 404.711 129.238 409.935 132.767 413.45C133.777 414.457 134.406 415.78 134.529 417.201Z" stroke="#FAFAFA" stroke-width="4" stroke-linejoin="round"/>
<path id="Vector 34" d="M171.569 400.052H186.836" stroke="#FAFAFA" stroke-width="4" stroke-linecap="round"/>
<path id="Vector 35" d="M103 400.052H118.267" stroke="#FAFAFA" stroke-width="4" stroke-linecap="round"/>
<path id="Vector 36" d="M114.785 370.321L125.581 381.117" stroke="#FAFAFA" stroke-width="4" stroke-linecap="round"/>
<path id="Vector 37" d="M174.597 370.321L163.801 381.117" stroke="#FAFAFA" stroke-width="4" stroke-linecap="round"/>
<path id="Vector 38" d="M145.006 358L144.784 373.266" stroke="#FAFAFA" stroke-width="4" stroke-linecap="round"/>
</g>
</g>
<defs>
<linearGradient id="paint0_linear_24_1491" x1="158.76" y1="238" x2="322.432" y2="139.23" gradientUnits="userSpaceOnUse">
<stop stop-color="#31E8E8"/>
<stop offset="1" stop-color="#5A95E8"/>
</linearGradient>
<linearGradient id="paint1_linear_24_1491" x1="379" y1="98" x2="379" y2="537" gradientUnits="userSpaceOnUse">
<stop stop-color="#34FAFF"/>
<stop offset="0.301888" stop-color="#4D7CFF"/>
<stop offset="0.614788" stop-color="#6500FC"/>
<stop offset="1" stop-color="#130A54"/>
</linearGradient>
<linearGradient id="paint2_linear_24_1491" x1="469.927" y1="305" x2="533.734" y2="264.449" gradientUnits="userSpaceOnUse">
<stop stop-color="#31E8E8" stop-opacity="0.9"/>
<stop offset="1" stop-color="#5A95E8" stop-opacity="0.8"/>
</linearGradient>
<linearGradient id="paint3_linear_24_1491" x1="116.647" y1="208.01" x2="51.7855" y2="259.224" gradientUnits="userSpaceOnUse">
<stop stop-color="#D04F8B"/>
<stop offset="1" stop-color="#7B17C9"/>
</linearGradient>
<linearGradient id="paint4_linear_24_1491" x1="264.923" y1="442.874" x2="202.315" y2="492.124" gradientUnits="userSpaceOnUse">
<stop stop-color="#6E80F5"/>
<stop offset="1" stop-color="#5A1CEA"/>
</linearGradient>
<linearGradient id="paint5_linear_24_1491" x1="187.853" y1="262.447" x2="147.365" y2="299.122" gradientUnits="userSpaceOnUse">
<stop stop-color="#6E80F5"/>
<stop offset="1" stop-color="#5A1CEA"/>
</linearGradient>
<linearGradient id="paint6_linear_24_1491" x1="548.555" y1="112.806" x2="486.187" y2="165.338" gradientUnits="userSpaceOnUse">
<stop stop-color="#D04F8B"/>
<stop offset="1" stop-color="#7B17C9"/>
</linearGradient>
<linearGradient id="paint7_linear_24_1491" x1="229.336" y1="346" x2="290.254" y2="309.412" gradientUnits="userSpaceOnUse">
<stop stop-color="#31E8E8" stop-opacity="0.9"/>
<stop offset="1" stop-color="#5A95E8" stop-opacity="0.8"/>
</linearGradient>
<linearGradient id="paint8_linear_24_1491" x1="81.6412" y1="453" x2="239.016" y2="352.199" gradientUnits="userSpaceOnUse">
<stop stop-color="#31E8E8"/>
<stop offset="1" stop-color="#5A95E8"/>
</linearGradient>
<linearGradient id="paint9_linear_24_1491" x1="25.9847" y1="354" x2="164.276" y2="259.241" gradientUnits="userSpaceOnUse">
<stop stop-color="#31E8E8"/>
<stop offset="1" stop-color="#5A95E8"/>
</linearGradient>
<linearGradient id="paint10_linear_24_1491" x1="266.842" y1="54.9223" x2="218.473" y2="98.8088" gradientUnits="userSpaceOnUse">
<stop stop-color="#D04F8B"/>
<stop offset="1" stop-color="#7B17C9"/>
</linearGradient>
<linearGradient id="paint11_linear_24_1491" x1="232.199" y1="517.67" x2="172.691" y2="565.157" gradientUnits="userSpaceOnUse">
<stop stop-color="#D04F8B"/>
<stop offset="1" stop-color="#7B17C9"/>
</linearGradient>
<linearGradient id="paint12_linear_24_1491" x1="596.842" y1="3.26214" x2="543.738" y2="46.426" gradientUnits="userSpaceOnUse">
<stop stop-color="#6E80F5"/>
<stop offset="1" stop-color="#5A1CEA"/>
</linearGradient>
<linearGradient id="paint13_linear_24_1491" x1="608.853" y1="307.447" x2="568.365" y2="344.122" gradientUnits="userSpaceOnUse">
<stop stop-color="#6E80F5"/>
<stop offset="1" stop-color="#5A1CEA"/>
</linearGradient>
<linearGradient id="paint14_linear_24_1491" x1="579.66" y1="98" x2="679.462" y2="32.2961" gradientUnits="userSpaceOnUse">
<stop stop-color="#31E8E8"/>
<stop offset="1" stop-color="#5A95E8"/>
</linearGradient>
<linearGradient id="paint15_linear_24_1491" x1="598.038" y1="577" x2="740.096" y2="492.328" gradientUnits="userSpaceOnUse">
<stop stop-color="#31E8E8"/>
<stop offset="1" stop-color="#5A95E8"/>
</linearGradient>
<linearGradient id="paint16_linear_24_1491" x1="551.523" y1="270" x2="710.747" y2="171.142" gradientUnits="userSpaceOnUse">
<stop stop-color="#31E8E8"/>
<stop offset="1" stop-color="#5A95E8"/>
</linearGradient>
<linearGradient id="paint17_linear_24_1491" x1="738.188" y1="395.942" x2="673.453" y2="451.186" gradientUnits="userSpaceOnUse">
<stop stop-color="#6E80F5"/>
<stop offset="1" stop-color="#5A1CEA"/>
</linearGradient>
<linearGradient id="paint18_linear_24_1491" x1="625.188" y1="377.942" x2="560.453" y2="433.186" gradientUnits="userSpaceOnUse">
<stop stop-color="#D04F8B"/>
<stop offset="1" stop-color="#7B17C9"/>
</linearGradient>
<linearGradient id="paint19_linear_24_1491" x1="619.038" y1="354" x2="761.096" y2="269.328" gradientUnits="userSpaceOnUse">
<stop stop-color="#31E8E8"/>
<stop offset="1" stop-color="#5A95E8"/>
</linearGradient>
<linearGradient id="paint20_linear_24_1491" x1="99.187" y1="577" x2="193.384" y2="512.978" gradientUnits="userSpaceOnUse">
<stop stop-color="#31E8E8"/>
<stop offset="1" stop-color="#5A95E8"/>
</linearGradient>
<linearGradient id="paint21_linear_24_1491" x1="741.221" y1="75.4466" x2="701.136" y2="109.163" gradientUnits="userSpaceOnUse">
<stop stop-color="#D04F8B"/>
<stop offset="1" stop-color="#7B17C9"/>
</linearGradient>
<linearGradient id="paint22_linear_24_1491" x1="55.2206" y1="474.447" x2="15.1359" y2="508.163" gradientUnits="userSpaceOnUse">
<stop stop-color="#D04F8B"/>
<stop offset="1" stop-color="#7B17C9"/>
</linearGradient>
<linearGradient id="paint23_linear_24_1491" x1="84.9037" y1="143.612" x2="184.994" y2="59.4686" gradientUnits="userSpaceOnUse">
<stop stop-color="#D04F8C" stop-opacity="0.9"/>
<stop offset="1" stop-color="#7C17D0" stop-opacity="0.9"/>
</linearGradient>
<linearGradient id="paint24_linear_24_1491" x1="15.855" y1="100" x2="141.106" y2="17.8315" gradientUnits="userSpaceOnUse">
<stop stop-color="#31E8E8"/>
<stop offset="1" stop-color="#5A95E8"/>
</linearGradient>
<linearGradient id="paint25_linear_24_1491" x1="434.173" y1="531.65" x2="422.537" y2="533.214" gradientUnits="userSpaceOnUse">
<stop stop-color="#6E80F5"/>
<stop offset="1" stop-color="#5A1CEA"/>
</linearGradient>
<linearGradient id="paint26_linear_24_1491" x1="338.794" y1="531.65" x2="310.799" y2="541.682" gradientUnits="userSpaceOnUse">
<stop stop-color="#6E80F5"/>
<stop offset="1" stop-color="#5A1CEA"/>
</linearGradient>
<linearGradient id="paint27_linear_24_1491" x1="369.978" y1="531.65" x2="343.841" y2="540.236" gradientUnits="userSpaceOnUse">
<stop stop-color="#6E80F5"/>
<stop offset="1" stop-color="#5A1CEA"/>
</linearGradient>
<linearGradient id="paint28_linear_24_1491" x1="416.794" y1="531.65" x2="388.799" y2="541.682" gradientUnits="userSpaceOnUse">
<stop stop-color="#6E80F5"/>
<stop offset="1" stop-color="#5A1CEA"/>
</linearGradient>
<linearGradient id="paint29_linear_24_1491" x1="427.971" y1="567.816" x2="423.446" y2="594.163" gradientUnits="userSpaceOnUse">
<stop stop-color="#6E80F5"/>
<stop offset="1" stop-color="#5A1CEA"/>
</linearGradient>
</defs>
</svg>
